<?xml version="1.0" encoding="UTF-8" standalone="no"?>
<svg xmlns="http://www.w3.org/2000/svg" xmlns:xlink="http://www.w3.org/1999/xlink" style="isolation:isolate"
  viewBox="0 0 560 315" width="560pt" height="315pt">
  <style>
    #g1,
    #g2,
    #g3 {
      animation-duration: 18s;
      animation-fill-mode: both;
      animation-name: scroll;
      animation-iteration-count: infinite;
      animation-fill-mode: both;
      opacity: 0;
      fill: white;
    }

    #g1 {
      animation-delay: 0s;
    }

    #g2 {
      animation-delay: 6s;
    }

    #g3 {
      animation-delay: 12s;
    }

    @keyframes scroll {
      0% {
        transform: translateY(40px);
        opacity: 0;
      }

      5.55%,
      33.33% {
        transform: translateY(0);
        opacity: 1;
      }

      38.88% {
        transform: translateY(-40px);
        opacity: 0;
      }
    }
  </style>
  <g id="g1" style="isolation:isolate">
    <path
      d=" M 229.18 137.16 L 229.18 171.42 L 232.84 172.14 L 232.84 172.14 Q 233.56 172.32 233.56 173.22 L 233.56 173.22 L 233.56 175.8 L 219.1 175.8 L 219.1 173.22 L 219.1 173.22 Q 219.1 172.26 219.94 172.08 L 219.94 172.08 L 223.42 171.42 L 223.42 137.16 L 219.82 136.44 L 219.82 136.44 Q 219.1 136.26 219.1 135.36 L 219.1 135.36 L 219.1 132.84 L 233.56 132.84 L 233.56 135.36 L 233.56 135.36 Q 233.56 136.32 232.66 136.5 L 232.66 136.5 L 229.18 137.16 Z  M 242.62 141.54 L 242.14 146.16 L 242.14 146.16 Q 242.08 147 241.6 147.66 L 241.6 147.66 L 241.6 147.66 Q 241.24 148.2 240.28 148.2 L 240.28 148.2 L 240.28 148.2 Q 239.5 148.2 239.08 147.66 L 239.08 147.66 L 239.08 147.66 Q 238.66 147.18 238.48 146.16 L 238.48 146.16 L 238 141.48 L 238 132.84 L 242.62 132.84 L 242.62 141.54 Z  M 256.54 149.7 L 256.54 149.7 Q 260.38 144.96 265.12 144.96 L 265.12 144.96 L 265.12 144.96 Q 268.24 144.96 270.16 146.7 L 270.16 146.7 L 270.16 146.7 Q 272.02 148.38 272.92 151.32 L 272.92 151.32 L 272.92 151.32 Q 274.24 148.08 276.88 146.52 L 276.88 146.52 L 276.88 146.52 Q 279.64 144.96 282.16 144.96 L 282.16 144.96 L 282.16 144.96 Q 284.8 144.96 286.84 145.74 L 286.84 145.74 L 286.84 145.74 Q 288.76 146.46 290.08 147.96 L 290.08 147.96 L 290.08 147.96 Q 292.72 150.96 292.72 156.48 L 292.72 156.48 L 292.72 171.48 L 292.72 171.48 Q 295.72 172.02 296.2 172.2 L 296.2 172.2 L 296.2 172.2 Q 297.1 172.38 297.1 173.28 L 297.1 173.28 L 297.1 175.92 L 287.44 175.92 L 287.44 156.54 L 287.44 156.54 Q 287.44 152.88 285.88 151.14 L 285.88 151.14 L 285.88 151.14 Q 284.2 149.28 281.32 149.28 L 281.32 149.28 L 281.32 149.28 Q 278.56 149.28 276.76 151.08 L 276.76 151.08 L 276.76 151.08 Q 274.78 153.06 274.78 156.48 L 274.78 156.48 L 274.78 171.48 L 274.78 171.48 Q 275.02 171.54 275.8 171.72 L 275.8 171.72 L 275.8 171.72 Q 276.58 171.9 278.2 172.2 L 278.2 172.2 L 278.2 172.2 Q 279.1 172.38 279.1 173.28 L 279.1 173.28 L 279.1 175.86 L 269.44 175.86 L 269.44 156.48 L 269.44 156.48 Q 269.44 149.28 263.68 149.28 L 263.68 149.28 L 263.68 149.28 Q 259.96 149.28 256.9 153.24 L 256.9 153.24 L 256.9 171.48 L 258.52 171.78 L 260.32 172.14 L 260.32 172.14 Q 261.22 172.32 261.22 173.28 L 261.22 173.28 L 261.22 175.8 L 247.24 175.8 L 247.24 173.28 L 247.24 173.28 Q 247.24 172.32 248.08 172.14 L 248.08 172.14 L 251.56 171.48 L 251.56 149.82 L 251.56 149.82 Q 248.56 149.28 248.08 149.1 L 248.08 149.1 L 248.08 149.1 Q 247.24 148.92 247.24 147.96 L 247.24 147.96 L 247.24 145.44 L 254.68 145.44 L 254.68 145.44 Q 255.76 145.44 256.12 146.52 L 256.12 146.52 L 256.54 149.64 L 256.54 149.7 Z  M 168.16 137.16 L 168.16 171.42 L 171.76 172.14 L 171.76 172.14 Q 172.48 172.32 172.48 173.22 L 172.48 173.22 L 172.48 175.8 L 157.96 175.8 L 157.96 173.22 L 157.96 173.22 Q 157.96 172.26 158.92 172.08 L 158.92 172.08 L 162.28 171.42 L 162.28 156.24 L 139.12 156.24 L 139.12 171.42 L 139.12 171.42 Q 143.44 172.32 143.44 173.22 L 143.44 173.22 L 143.44 175.8 L 128.98 175.8 L 128.98 173.22 L 128.98 173.22 Q 128.98 172.26 129.88 172.08 L 129.88 172.08 L 133.3 171.42 L 133.3 137.16 L 129.7 136.44 L 129.7 136.44 Q 128.98 136.26 128.98 135.36 L 128.98 135.36 L 128.98 132.84 L 143.44 132.84 L 143.44 135.36 L 143.44 135.36 Q 143.44 136.26 142.84 136.44 L 142.84 136.44 L 142.84 136.44 Q 142.18 136.62 139.18 137.16 L 139.18 137.16 L 139.18 151.98 L 162.34 151.98 L 162.34 137.16 L 158.74 136.44 L 158.74 136.44 Q 158.02 136.26 158.02 135.36 L 158.02 135.36 L 158.02 132.84 L 172.54 132.84 L 172.54 135.36 L 172.54 135.36 Q 172.54 136.32 171.64 136.5 L 171.64 136.5 L 168.16 137.16 Z  M 180.58 138.54 L 180.58 138.54 Q 180.1 138.06 179.74 137.34 L 179.74 137.34 L 179.74 137.34 Q 179.44 136.74 179.44 135.9 L 179.44 135.9 L 179.44 135.9 Q 179.44 135 179.74 134.4 L 179.74 134.4 L 179.74 134.4 Q 180.16 133.56 180.58 133.14 L 180.58 133.14 L 180.58 133.14 Q 181.06 132.66 181.78 132.3 L 181.78 132.3 L 181.78 132.3 Q 182.38 132 183.22 132 L 183.22 132 L 183.22 132 Q 184.06 132 184.66 132.3 L 184.66 132.3 L 184.66 132.3 Q 185.38 132.66 185.86 133.14 L 185.86 133.14 L 185.86 133.14 Q 186.28 133.56 186.7 134.4 L 186.7 134.4 L 186.7 134.4 Q 187.06 135.12 187.06 135.9 L 187.06 135.9 L 187.06 135.9 Q 187.06 136.62 186.7 137.34 L 186.7 137.34 L 186.7 137.34 Q 186.34 138.06 185.86 138.54 L 185.86 138.54 L 185.86 138.54 Q 185.38 139.02 184.66 139.38 L 184.66 139.38 L 184.66 139.38 Q 184.06 139.68 183.22 139.68 L 183.22 139.68 L 183.22 139.68 Q 182.38 139.68 181.78 139.38 L 181.78 139.38 L 181.78 139.38 Q 181.06 139.02 180.58 138.54 L 180.58 138.54 Z  M 189.28 172.08 L 189.28 172.08 Q 189.7 172.14 189.94 172.47 L 189.94 172.47 L 189.94 172.47 Q 190.18 172.8 190.18 173.22 L 190.18 173.22 L 190.18 175.8 L 176.2 175.8 L 176.2 173.22 L 176.2 173.22 Q 176.2 172.8 176.44 172.47 L 176.44 172.47 L 176.44 172.47 Q 176.68 172.14 177.1 172.08 L 177.1 172.08 L 180.58 171.42 L 180.58 149.76 L 177.1 149.1 L 177.1 149.1 Q 176.68 149.04 176.44 148.71 L 176.44 148.71 L 176.44 148.71 Q 176.2 148.38 176.2 147.96 L 176.2 147.96 L 176.2 145.44 L 185.86 145.44 L 185.86 171.42 L 189.28 172.08 Z  M 195.94 183.96 L 195.04 183.06 L 195.04 183.06 Q 194.68 182.7 194.68 182.22 L 194.68 182.22 L 194.68 182.22 Q 194.68 181.92 194.83 181.71 L 194.83 181.71 L 194.83 181.71 Q 194.98 181.5 195.25 181.23 L 195.25 181.23 L 195.25 181.23 Q 195.52 180.96 195.88 180.54 L 195.88 180.54 L 195.88 180.54 Q 196.84 179.4 197.47 178.14 L 197.47 178.14 L 197.47 178.14 Q 198.1 176.88 198.28 175.8 L 198.28 175.8 L 197.92 175.8 L 197.92 175.8 Q 196.3 175.8 195.34 174.72 L 195.34 174.72 L 195.34 174.72 Q 194.38 173.64 194.38 172.14 L 194.38 172.14 L 194.38 172.14 Q 194.38 170.76 195.43 169.74 L 195.43 169.74 L 195.43 169.74 Q 196.48 168.72 197.92 168.72 L 197.92 168.72 L 197.92 168.72 Q 199.78 168.72 200.71 169.92 L 200.71 169.92 L 200.71 169.92 Q 201.64 171.12 201.64 172.98 L 201.64 172.98 L 201.64 172.98 Q 201.64 175.98 199.99 179.01 L 199.99 179.01 L 199.99 179.01 Q 198.34 182.04 195.94 183.96 L 195.94 183.96 Z " />
    <path
      d=" M 338.86 137.82 L 338.5 137.88 L 338.5 137.88 Q 338.32 137.88 338.11 137.94 L 338.11 137.94 L 338.11 137.94 Q 337.9 138 337.6 138.06 L 337.6 138.06 L 335.86 138.36 L 335.86 169.86 L 337.6 170.16 L 337.6 170.16 Q 337.9 170.22 338.11 170.28 L 338.11 170.28 L 338.11 170.28 Q 338.32 170.34 338.5 170.34 L 338.5 170.34 L 338.86 170.4 L 338.86 170.4 Q 340.36 170.76 340.36 172.26 L 340.36 172.26 L 340.36 175.8 L 323.2 175.8 L 323.2 172.26 L 323.2 172.26 Q 323.2 170.76 324.7 170.4 L 324.7 170.4 L 325.06 170.34 L 325.96 170.16 L 327.76 169.86 L 327.76 138.36 L 325.96 138.06 L 325.96 138.06 Q 325.66 138 325.45 137.94 L 325.45 137.94 L 325.45 137.94 Q 325.24 137.88 325.06 137.88 L 325.06 137.88 L 324.7 137.82 L 324.7 137.82 Q 323.2 137.46 323.2 135.96 L 323.2 135.96 L 323.2 132.42 L 340.36 132.42 L 340.36 135.96 L 340.36 135.96 Q 340.36 137.46 338.86 137.82 L 338.86 137.82 Z  M 355.9 144.48 L 355.9 144.48 Q 357.64 144.48 359.62 144.9 L 359.62 144.9 L 359.62 144.9 Q 361.3 145.26 362.8 146.1 L 362.8 146.1 L 371.62 146.1 L 371.62 148.86 L 371.62 148.86 Q 371.62 149.58 371.26 149.94 L 371.26 149.94 L 371.26 149.94 Q 370.9 150.3 370.06 150.48 L 370.06 150.48 L 367.3 150.96 L 367.3 150.96 Q 367.54 151.56 367.72 152.64 L 367.72 152.64 L 367.72 152.64 Q 367.9 153.54 367.9 154.44 L 367.9 154.44 L 367.9 154.44 Q 367.9 156.78 367 158.58 L 367 158.58 L 367 158.58 Q 366.04 160.5 364.48 161.7 L 364.48 161.7 L 364.48 161.7 Q 362.92 162.9 360.64 163.68 L 360.64 163.68 L 360.64 163.68 Q 358.48 164.4 355.9 164.4 L 355.9 164.4 L 355.9 164.4 Q 353.86 164.4 352.48 164.1 L 352.48 164.1 L 352.48 164.1 Q 351.04 165 351.04 166.02 L 351.04 166.02 L 351.04 166.02 Q 351.04 166.98 351.88 167.4 L 351.88 167.4 L 351.88 167.4 Q 352.72 167.82 354.16 168 L 354.16 168 L 354.16 168 Q 356.08 168.24 357.34 168.24 L 357.34 168.24 L 357.34 168.24 Q 357.94 168.24 358.84 168.27 L 358.84 168.27 L 358.84 168.27 Q 359.74 168.3 360.94 168.42 L 360.94 168.42 L 360.94 168.42 Q 362.8 168.6 364.6 168.96 L 364.6 168.96 L 364.6 168.96 Q 366.16 169.26 367.72 170.16 L 367.72 170.16 L 367.72 170.16 Q 369.16 170.94 370 172.32 L 370 172.32 L 370 172.32 Q 370.84 173.64 370.84 175.92 L 370.84 175.92 L 370.84 175.92 Q 370.84 177.96 369.82 179.88 L 369.82 179.88 L 369.82 179.88 Q 368.86 181.8 366.94 183.3 L 366.94 183.3 L 366.94 183.3 Q 365.14 184.8 362.26 185.7 L 362.26 185.7 L 362.26 185.7 Q 359.44 186.6 355.96 186.6 L 355.96 186.6 L 355.96 186.6 Q 352.24 186.6 349.84 185.94 L 349.84 185.94 L 349.84 185.94 Q 347.32 185.22 345.58 184.14 L 345.58 184.14 L 345.58 184.14 Q 343.9 183.12 343.06 181.56 L 343.06 181.56 L 343.06 181.56 Q 342.22 180.06 342.22 178.5 L 342.22 178.5 L 342.22 178.5 Q 342.22 176.22 343.54 174.84 L 343.54 174.84 L 343.54 174.84 Q 344.8 173.46 347.2 172.56 L 347.2 172.56 L 347.2 172.56 Q 346.12 171.96 345.4 170.88 L 345.4 170.88 L 345.4 170.88 Q 344.68 169.8 344.68 168.12 L 344.68 168.12 L 344.68 168.12 Q 344.68 167.34 344.92 166.68 L 344.92 166.68 L 344.92 166.68 Q 345.28 165.72 345.64 165.24 L 345.64 165.24 L 345.64 165.24 Q 346.24 164.46 346.9 163.86 L 346.9 163.86 L 346.9 163.86 Q 347.38 163.44 348.7 162.72 L 348.7 162.72 L 348.7 162.72 Q 346.36 161.46 344.98 159.36 L 344.98 159.36 L 344.98 159.36 Q 343.66 157.32 343.66 154.44 L 343.66 154.44 L 343.66 154.44 Q 343.66 152.1 344.56 150.3 L 344.56 150.3 L 344.56 150.3 Q 345.46 148.5 347.14 147.18 L 347.14 147.18 L 347.14 147.18 Q 348.76 145.92 350.98 145.2 L 350.98 145.2 L 350.98 145.2 Q 353.26 144.48 355.9 144.48 L 355.9 144.48 Z  M 355.9 159.66 L 355.9 159.66 Q 357.28 159.66 358.3 159.3 L 358.3 159.3 L 358.3 159.3 Q 359.32 158.94 359.98 158.28 L 359.98 158.28 L 359.98 158.28 Q 360.58 157.8 361 156.66 L 361 156.66 L 361 156.66 Q 361.36 155.76 361.36 154.62 L 361.36 154.62 L 361.36 154.62 Q 361.36 152.4 359.98 151.02 L 359.98 151.02 L 359.98 151.02 Q 358.66 149.7 355.9 149.7 L 355.9 149.7 L 355.9 149.7 Q 353.08 149.7 351.76 151.02 L 351.76 151.02 L 351.76 151.02 Q 350.44 152.34 350.44 154.62 L 350.44 154.62 L 350.44 154.62 Q 350.44 155.88 350.74 156.66 L 350.74 156.66 L 350.74 156.66 Q 351.1 157.56 351.76 158.22 L 351.76 158.22 L 351.76 158.22 Q 352.54 159 353.5 159.3 L 353.5 159.3 L 353.5 159.3 Q 354.58 159.66 355.9 159.66 L 355.9 159.66 Z  M 364 177.18 L 364 177.18 Q 364 176.28 363.46 175.74 L 363.46 175.74 L 363.46 175.74 Q 362.92 175.2 362.02 174.84 L 362.02 174.84 L 362.02 174.84 Q 361.36 174.6 359.8 174.36 L 359.8 174.36 L 359.8 174.36 Q 358.84 174.24 357.16 174.12 L 357.16 174.12 L 354.28 174 L 354.28 174 Q 352.36 173.88 351.46 173.76 L 351.46 173.76 L 351.46 173.76 Q 350.08 174.54 349.42 175.38 L 349.42 175.38 L 349.42 175.38 Q 348.64 176.34 348.64 177.54 L 348.64 177.54 L 348.64 177.54 Q 348.64 178.2 349.06 179.04 L 349.06 179.04 L 349.06 179.04 Q 349.42 179.76 350.32 180.3 L 350.32 180.3 L 350.32 180.3 Q 351.16 180.78 352.66 181.08 L 352.66 181.08 L 352.66 181.08 Q 354.28 181.38 356.08 181.38 L 356.08 181.38 L 356.08 181.38 Q 358.18 181.38 359.68 181.02 L 359.68 181.02 L 359.68 181.02 Q 361.3 180.66 362.14 180.18 L 362.14 180.18 L 362.14 180.18 Q 363.1 179.7 363.58 178.86 L 363.58 178.86 L 363.58 178.86 Q 364 178.2 364 177.18 L 364 177.18 Z  M 388.72 144.54 L 388.72 144.54 Q 392.02 144.54 394.96 145.68 L 394.96 145.68 L 394.96 145.68 Q 397.84 146.82 399.76 148.8 L 399.76 148.8 L 399.76 148.8 Q 401.68 150.78 402.76 153.78 L 402.76 153.78 L 402.76 153.78 Q 403.84 156.72 403.84 160.32 L 403.84 160.32 L 403.84 160.32 Q 403.84 163.92 402.76 166.92 L 402.76 166.92 L 402.76 166.92 Q 401.62 169.98 399.76 171.96 L 399.76 171.96 L 399.76 171.96 Q 397.78 174.06 394.96 175.14 L 394.96 175.14 L 394.96 175.14 Q 392.2 176.22 388.72 176.22 L 388.72 176.22 L 388.72 176.22 Q 385.24 176.22 382.42 175.14 L 382.42 175.14 L 382.42 175.14 Q 379.6 174.06 377.62 171.96 L 377.62 171.96 L 377.62 171.96 Q 375.52 169.8 374.5 166.92 L 374.5 166.92 L 374.5 166.92 Q 373.42 163.92 373.42 160.32 L 373.42 160.32 L 373.42 160.32 Q 373.42 156.72 374.5 153.78 L 374.5 153.78 L 374.5 153.78 Q 375.52 151.02 377.62 148.8 L 377.62 148.8 L 377.62 148.8 Q 379.54 146.82 382.42 145.68 L 382.42 145.68 L 382.42 145.68 Q 385.36 144.54 388.72 144.54 L 388.72 144.54 Z  M 388.72 170.52 L 388.72 170.52 Q 392.56 170.52 394.36 167.94 L 394.36 167.94 L 394.36 167.94 Q 396.22 165.24 396.22 160.38 L 396.22 160.38 L 396.22 160.38 Q 396.22 155.52 394.36 152.82 L 394.36 152.82 L 394.36 152.82 Q 392.56 150.18 388.72 150.18 L 388.72 150.18 L 388.72 150.18 Q 384.88 150.18 382.96 152.82 L 382.96 152.82 L 382.96 152.82 Q 381.04 155.46 381.04 160.44 L 381.04 160.44 L 381.04 160.44 Q 381.04 165.3 382.96 167.94 L 382.96 167.94 L 382.96 167.94 Q 384.82 170.52 388.72 170.52 L 388.72 170.52 Z  M 426.34 144.48 L 426.34 144.48 Q 428.68 144.48 430.12 145.5 L 430.12 145.5 L 429.16 151.08 L 429.16 151.08 Q 429.1 151.62 428.8 151.8 L 428.8 151.8 L 428.8 151.8 Q 428.44 152.04 427.96 152.04 L 427.96 152.04 L 427.96 152.04 Q 427.54 152.04 426.76 151.86 L 426.76 151.86 L 426.76 151.86 Q 425.68 151.62 424.66 151.62 L 424.66 151.62 L 424.66 151.62 Q 422.32 151.62 420.7 152.88 L 420.7 152.88 L 420.7 152.88 Q 419.2 154.02 417.94 156.66 L 417.94 156.66 L 417.94 169.86 L 420.94 170.4 L 420.94 170.4 Q 422.44 170.76 422.44 172.26 L 422.44 172.26 L 422.44 175.8 L 406 175.8 L 406 172.26 L 406 172.26 Q 406 170.76 407.5 170.4 L 407.5 170.4 L 410.5 169.86 L 410.5 150.96 L 407.5 150.42 L 407.5 150.42 Q 406 150.06 406 148.56 L 406 148.56 L 406 145.02 L 414.88 145.02 L 414.88 145.02 Q 416.02 145.02 416.44 145.44 L 416.44 145.44 L 416.44 145.44 Q 416.86 145.86 417.04 146.88 L 417.04 146.88 L 417.52 150.6 L 417.52 150.6 Q 419.14 147.66 421.36 146.1 L 421.36 146.1 L 421.36 146.1 Q 423.64 144.48 426.34 144.48 L 426.34 144.48 Z " />
  </g>
  <g id="g2" style="isolation:isolate">
    <path
      d=" M 307.72 175.38 L 296.2 175.38 L 296.2 174.42 L 299.14 172.5 L 299.14 163.5 L 295.6 163.5 L 289.42 172.26 L 287.86 175.38 L 280.3 175.38 L 280.3 174.42 L 283.9 172.38 L 290.98 162.72 L 290.98 162.72 Q 287.62 162.18 285.82 160.47 L 285.82 160.47 L 285.82 160.47 Q 284.02 158.76 284.02 156.24 L 284.02 156.24 L 284.02 156.24 Q 284.02 153.3 285.49 151.59 L 285.49 151.59 L 285.49 151.59 Q 286.96 149.88 289.45 149.13 L 289.45 149.13 L 289.45 149.13 Q 291.94 148.38 295.06 148.38 L 295.06 148.38 L 307.72 148.38 L 307.72 149.34 L 303.94 151.26 L 303.94 172.5 L 307.72 174.42 L 307.72 175.38 Z  M 294.52 161.28 L 294.52 161.28 L 299.14 161.28 L 299.14 150.9 L 295.12 150.9 L 295.12 150.9 Q 292 150.9 290.44 152.37 L 290.44 152.37 L 290.44 152.37 Q 288.88 153.84 288.88 156.06 L 288.88 156.06 L 288.88 156.06 Q 288.88 158.16 290.29 159.72 L 290.29 159.72 L 290.29 159.72 Q 291.7 161.28 294.52 161.28 Z  M 64.4 175.38 L 49.4 175.38 L 49.4 174.42 L 54.2 172.02 L 54.2 139.14 L 49.4 136.74 L 49.4 135.78 L 88.4 135.78 L 88.4 136.74 L 83.6 139.14 L 83.6 172.02 L 88.4 174.42 L 88.4 175.38 L 73.4 175.38 L 73.4 174.42 L 78.2 172.02 L 78.2 139.08 L 59.6 139.08 L 59.6 172.02 L 64.4 174.42 L 64.4 175.38 Z  M 108.22 189.18 L 95.38 189.18 L 95.38 188.22 L 99.16 186.3 L 99.16 154.62 L 95.56 151.5 L 95.56 151.08 L 103 147.78 L 103.36 147.78 L 103.84 151.44 L 104.26 151.44 L 104.26 151.44 Q 106.54 149.52 108.64 148.65 L 108.64 148.65 L 108.64 148.65 Q 110.74 147.78 113.2 147.78 L 113.2 147.78 L 113.2 147.78 Q 116.26 147.78 118.6 149.34 L 118.6 149.34 L 118.6 149.34 Q 120.94 150.9 122.29 153.75 L 122.29 153.75 L 122.29 153.75 Q 123.64 156.6 123.64 160.56 L 123.64 160.56 L 123.64 160.56 Q 123.64 165.48 121.81 168.93 L 121.81 168.93 L 121.81 168.93 Q 119.98 172.38 116.86 174.18 L 116.86 174.18 L 116.86 174.18 Q 113.74 175.98 110.02 175.98 L 110.02 175.98 L 110.02 175.98 Q 106.66 175.98 103.96 175.38 L 103.96 175.38 L 103.96 186.3 L 108.22 188.22 L 108.22 189.18 Z  M 109.9 151.92 L 109.9 151.92 L 109.9 151.92 Q 108.46 151.92 106.93 152.37 L 106.93 152.37 L 106.93 152.37 Q 105.4 152.82 103.96 153.72 L 103.96 153.72 L 103.96 170.58 L 103.96 170.58 Q 105.76 172.02 107.62 172.56 L 107.62 172.56 L 107.62 172.56 Q 109.48 173.1 111.76 173.1 L 111.76 173.1 L 111.76 173.1 Q 114.64 173.1 116.74 170.67 L 116.74 170.67 L 116.74 170.67 Q 118.84 168.24 118.84 162.54 L 118.84 162.54 L 118.84 162.54 Q 118.84 158.82 117.64 156.48 L 117.64 156.48 L 117.64 156.48 Q 116.44 154.14 114.4 153.03 L 114.4 153.03 L 114.4 153.03 Q 112.36 151.92 109.9 151.92 Z  M 133.16 172.5 L 133.16 151.26 L 129.38 149.34 L 129.38 148.38 L 141.74 148.38 L 141.74 149.34 L 137.96 151.26 L 137.96 166.74 L 151.16 153.36 L 151.16 151.26 L 147.38 149.34 L 147.38 148.38 L 159.74 148.38 L 159.74 149.34 L 155.96 151.26 L 155.96 172.5 L 159.74 174.42 L 159.74 175.38 L 147.38 175.38 L 147.38 174.42 L 151.16 172.5 L 151.16 157.02 L 137.96 170.4 L 137.96 172.5 L 141.74 174.42 L 141.74 175.38 L 129.38 175.38 L 129.38 174.42 L 133.16 172.5 Z  M 169.16 172.5 L 169.16 151.26 L 165.38 149.34 L 165.38 148.38 L 176.54 148.38 L 176.54 148.38 Q 182 148.38 185.39 149.7 L 185.39 149.7 L 185.39 149.7 Q 188.78 151.02 188.78 154.5 L 188.78 154.5 L 188.78 154.5 Q 188.78 156.66 187.37 158.4 L 187.37 158.4 L 187.37 158.4 Q 185.96 160.14 182.24 160.8 L 182.24 160.8 L 182.24 160.8 Q 185.48 161.16 187.31 162.18 L 187.31 162.18 L 187.31 162.18 Q 189.14 163.2 189.92 164.55 L 189.92 164.55 L 189.92 164.55 Q 190.7 165.9 190.7 167.28 L 190.7 167.28 L 190.7 167.28 Q 190.7 171.3 187.1 173.34 L 187.1 173.34 L 187.1 173.34 Q 183.5 175.38 176.06 175.38 L 176.06 175.38 L 165.38 175.38 L 165.38 174.42 L 169.16 172.5 Z  M 178.34 150.96 L 178.34 150.96 L 173.96 150.96 L 173.96 159.9 L 178.16 159.9 L 178.16 159.9 Q 181.1 159.9 182.39 158.64 L 182.39 158.64 L 182.39 158.64 Q 183.68 157.38 183.68 155.52 L 183.68 155.52 L 183.68 155.52 Q 183.68 153.66 182.48 152.31 L 182.48 152.31 L 182.48 152.31 Q 181.28 150.96 178.34 150.96 Z  M 178.1 162.18 L 178.1 162.18 L 173.96 162.18 L 173.96 172.8 L 177.86 172.8 L 177.86 172.8 Q 181.76 172.8 183.53 171.51 L 183.53 171.51 L 183.53 171.51 Q 185.3 170.22 185.3 167.82 L 185.3 167.82 L 185.3 167.82 Q 185.3 165.18 183.59 163.68 L 183.59 163.68 L 183.59 163.68 Q 181.88 162.18 178.1 162.18 Z  M 208.04 175.98 L 208.04 175.98 L 208.04 175.98 Q 202.22 175.98 198.86 172.44 L 198.86 172.44 L 198.86 172.44 Q 195.5 168.9 195.5 163.08 L 195.5 163.08 L 195.5 163.08 Q 195.5 158.58 197.27 155.13 L 197.27 155.13 L 197.27 155.13 Q 199.04 151.68 201.95 149.73 L 201.95 149.73 L 201.95 149.73 Q 204.86 147.78 208.28 147.78 L 208.28 147.78 L 208.28 147.78 Q 213.02 147.78 215.75 151.08 L 215.75 151.08 L 215.75 151.08 Q 218.48 154.38 218.48 160.56 L 218.48 160.56 L 218.18 160.86 L 200.24 160.86 L 200.24 160.86 Q 200.3 163.62 201.32 166.05 L 201.32 166.05 L 201.32 166.05 Q 202.34 168.48 204.59 169.98 L 204.59 169.98 L 204.59 169.98 Q 206.84 171.48 210.62 171.48 L 210.62 171.48 L 210.62 171.48 Q 213.92 171.48 218.36 169.08 L 218.36 169.08 L 218.54 169.08 L 218.54 169.68 L 218.54 169.68 Q 217.16 172.26 214.43 174.12 L 214.43 174.12 L 214.43 174.12 Q 211.7 175.98 208.04 175.98 Z  M 207.32 150.42 L 207.32 150.42 L 207.32 150.42 Q 204.44 150.42 202.61 152.43 L 202.61 152.43 L 202.61 152.43 Q 200.78 154.44 200.36 158.1 L 200.36 158.1 L 213.92 158.1 L 213.92 158.1 Q 213.26 154.02 211.61 152.22 L 211.61 152.22 L 211.61 152.22 Q 209.96 150.42 207.32 150.42 Z  M 224.26 158.64 L 223.3 158.64 L 223.3 148.38 L 249.22 148.38 L 249.22 158.64 L 248.26 158.64 L 244.18 151.2 L 238.66 151.2 L 238.66 172.5 L 243.28 174.42 L 243.28 175.38 L 229.24 175.38 L 229.24 174.42 L 233.86 172.5 L 233.86 151.2 L 228.34 151.2 L 224.26 158.64 Z  M 252.16 187.68 L 252.16 187.68 L 252.16 186.42 L 252.16 186.42 Q 254.68 185.1 255.82 183.42 L 255.82 183.42 L 255.82 183.42 Q 256.96 181.74 256.96 179.88 L 256.96 179.88 L 256.96 179.88 Q 256.96 178.2 256.21 177.09 L 256.21 177.09 L 256.21 177.09 Q 255.46 175.98 253.96 175.2 L 253.96 175.2 L 251.92 174.12 L 251.74 173.52 L 253.48 170.52 L 253.48 170.52 Q 253.9 169.86 254.2 169.53 L 254.2 169.53 L 254.2 169.53 Q 254.5 169.2 254.98 169.2 L 254.98 169.2 L 254.98 169.2 Q 255.46 169.2 256.48 169.74 L 256.48 169.74 L 256.48 169.74 Q 258.34 170.82 259.39 172.74 L 259.39 172.74 L 259.39 172.74 Q 260.44 174.66 260.44 176.88 L 260.44 176.88 L 260.44 176.88 Q 260.44 180.06 258.52 182.82 L 258.52 182.82 L 258.52 182.82 Q 256.6 185.58 252.16 187.68 Z " />
    <path
      d=" M 347.98 175.38 L 329.14 175.38 L 329.14 174.42 L 334.24 171.96 L 334.24 139.2 L 329.14 136.74 L 329.14 135.78 L 347.98 135.78 L 347.98 136.74 L 343.3 139.2 L 343.3 164.46 L 360.52 141.9 L 360.52 139.2 L 355.72 136.74 L 355.72 135.78 L 374.62 135.78 L 374.62 136.74 L 369.58 139.2 L 369.58 171.96 L 374.62 174.42 L 374.62 175.38 L 355.72 175.38 L 355.72 174.42 L 360.52 171.96 L 360.52 146.82 L 343.3 169.38 L 343.3 171.96 L 347.98 174.42 L 347.98 175.38 Z  M 383.38 172.5 L 383.38 150.9 L 379.36 148.98 L 379.36 148.02 L 404.44 148.02 L 404.44 158.28 L 403.3 158.28 L 399.04 150.96 L 391.78 150.96 L 391.78 172.5 L 396.94 174.42 L 396.94 175.38 L 379.36 175.38 L 379.36 174.42 L 383.38 172.5 Z  M 421.94 175.98 L 421.94 175.98 L 421.94 175.98 Q 417.68 175.98 414.44 174.03 L 414.44 174.03 L 414.44 174.03 Q 411.2 172.08 409.4 168.84 L 409.4 168.84 L 409.4 168.84 Q 407.6 165.6 407.6 161.7 L 407.6 161.7 L 407.6 161.7 Q 407.6 157.74 409.4 154.5 L 409.4 154.5 L 409.4 154.5 Q 411.2 151.26 414.44 149.34 L 414.44 149.34 L 414.44 149.34 Q 417.68 147.42 421.94 147.42 L 421.94 147.42 L 421.94 147.42 Q 426.2 147.42 429.41 149.34 L 429.41 149.34 L 429.41 149.34 Q 432.62 151.26 434.42 154.5 L 434.42 154.5 L 434.42 154.5 Q 436.22 157.74 436.22 161.7 L 436.22 161.7 L 436.22 161.7 Q 436.22 165.6 434.42 168.84 L 434.42 168.84 L 434.42 168.84 Q 432.62 172.08 429.41 174.03 L 429.41 174.03 L 429.41 174.03 Q 426.2 175.98 421.94 175.98 Z  M 422.6 173.04 L 422.6 173.04 L 422.6 173.04 Q 424.34 173.04 425.45 171.63 L 425.45 171.63 L 425.45 171.63 Q 426.56 170.22 427.07 167.88 L 427.07 167.88 L 427.07 167.88 Q 427.58 165.54 427.58 162.9 L 427.58 162.9 L 427.58 162.9 Q 427.58 159.66 426.95 156.78 L 426.95 156.78 L 426.95 156.78 Q 426.32 153.9 424.97 152.1 L 424.97 152.1 L 424.97 152.1 Q 423.62 150.3 421.4 150.3 L 421.4 150.3 L 421.4 150.3 Q 419.6 150.3 418.46 151.71 L 418.46 151.71 L 418.46 151.71 Q 417.32 153.12 416.78 155.43 L 416.78 155.43 L 416.78 155.43 Q 416.24 157.74 416.24 160.44 L 416.24 160.44 L 416.24 160.44 Q 416.24 163.74 416.9 166.59 L 416.9 166.59 L 416.9 166.59 Q 417.56 169.44 418.97 171.24 L 418.97 171.24 L 418.97 171.24 Q 420.38 173.04 422.6 173.04 Z  M 457.46 189.18 L 440.36 189.18 L 440.36 188.22 L 444.38 186.3 L 444.38 154.62 L 440.54 151.8 L 440.54 151.08 L 451.46 147.42 L 452.18 147.42 L 452.66 151.08 L 453.02 151.08 L 453.02 151.08 Q 455.24 149.16 457.31 148.29 L 457.31 148.29 L 457.31 148.29 Q 459.38 147.42 461.78 147.42 L 461.78 147.42 L 461.78 147.42 Q 464.42 147.42 466.73 149.01 L 466.73 149.01 L 466.73 149.01 Q 469.04 150.6 470.42 153.54 L 470.42 153.54 L 470.42 153.54 Q 471.8 156.48 471.8 160.56 L 471.8 160.56 L 471.8 160.56 Q 471.8 165.36 469.88 168.81 L 469.88 168.81 L 469.88 168.81 Q 467.96 172.26 464.78 174.12 L 464.78 174.12 L 464.78 174.12 Q 461.6 175.98 457.88 175.98 L 457.88 175.98 L 457.88 175.98 Q 456.5 175.98 455.21 175.86 L 455.21 175.86 L 455.21 175.86 Q 453.92 175.74 452.78 175.38 L 452.78 175.38 L 452.78 186.3 L 457.46 188.22 L 457.46 189.18 Z  M 456.8 152.34 L 456.8 152.34 L 456.8 152.34 Q 455.72 152.34 454.79 152.64 L 454.79 152.64 L 454.79 152.64 Q 453.86 152.94 452.78 153.54 L 452.78 153.54 L 452.78 170.88 L 452.78 170.88 Q 454.52 172.86 457.52 172.86 L 457.52 172.86 L 457.52 172.86 Q 458.96 172.86 460.31 171.96 L 460.31 171.96 L 460.31 171.96 Q 461.66 171.06 462.53 168.78 L 462.53 168.78 L 462.53 168.78 Q 463.4 166.5 463.4 162.3 L 463.4 162.3 L 463.4 162.3 Q 463.4 157.14 461.36 154.74 L 461.36 154.74 L 461.36 154.74 Q 459.32 152.34 456.8 152.34 Z  M 487.78 158.52 L 489.34 158.52 L 489.34 158.52 Q 497.2 158.52 500.86 160.74 L 500.86 160.74 L 500.86 160.74 Q 504.52 162.96 504.52 166.44 L 504.52 166.44 L 504.52 166.44 Q 504.52 170.94 500.59 173.16 L 500.59 173.16 L 500.59 173.16 Q 496.66 175.38 489.16 175.38 L 489.16 175.38 L 475.36 175.38 L 475.36 174.42 L 479.38 172.5 L 479.38 150.9 L 475.36 148.98 L 475.36 148.02 L 492.64 148.02 L 492.64 148.98 L 487.78 150.9 L 487.78 158.52 Z  M 489.58 161.28 L 489.58 161.28 L 487.78 161.28 L 487.78 172.62 L 489.46 172.62 L 489.46 172.62 Q 492.64 172.62 494.26 171.15 L 494.26 171.15 L 494.26 171.15 Q 495.88 169.68 495.88 167.04 L 495.88 167.04 L 495.88 167.04 Q 495.88 164.46 494.29 162.87 L 494.29 162.87 L 494.29 162.87 Q 492.7 161.28 489.58 161.28 Z " />
  </g>
  <g id="g3" style="isolation:isolate">
    <path
      d=" M 513.07 182.19 C 508.57 182.19 506.35 180.51 506.35 178.41 C 506.35 175.53 510.55 173.37 516.31 173.37 C 518.35 173.37 520.27 173.55 522.13 173.85 C 522.07 179.55 520.45 182.19 513.07 182.19 Z  M 524.35 153.51 C 525.55 154.05 527.11 154.65 528.37 154.65 C 532.15 154.65 537.07 153.63 538.93 153.03 C 540.49 152.55 541.15 151.83 541.15 151.11 C 541.15 149.79 540.01 149.01 537.67 149.01 C 536.83 149.01 535.75 149.73 533.89 150.33 C 531.79 150.93 528.43 151.53 526.15 151.53 C 525.73 151.53 525.07 151.53 524.41 151.47 C 524.53 148.71 524.83 145.83 525.19 144.27 C 525.67 142.47 526.39 141.99 526.39 140.61 C 526.39 139.17 522.67 137.19 519.55 137.19 C 517.99 137.19 516.49 137.61 515.11 138.09 L 515.23 139.35 C 516.61 139.41 518.23 139.59 519.43 139.95 C 520.51 140.37 520.93 140.79 521.05 142.11 C 521.17 143.31 521.23 149.97 521.29 153.87 C 521.29 157.95 521.83 166.23 522.01 170.79 C 520.81 170.67 519.49 170.61 518.11 170.61 C 510.91 170.61 503.95 173.13 503.95 178.71 C 503.95 182.97 508.33 185.67 514.57 185.67 C 521.89 185.67 525.67 182.31 525.67 177.27 C 525.67 176.25 525.61 175.41 525.55 174.63 C 527.65 175.23 529.63 176.01 531.37 177.03 C 537.13 180.27 539.05 183.69 540.85 183.69 C 541.93 183.69 542.59 183.09 542.59 181.95 C 542.59 178.83 537.49 175.71 533.77 174.03 C 531.19 172.83 528.37 171.87 525.13 171.27 C 525.07 170.79 525.01 170.25 524.95 169.71 C 524.59 164.97 524.35 157.05 524.35 154.29 L 524.35 153.51 Z  M 474.37 141.69 C 476.89 143.49 478.51 145.41 479.77 146.97 C 480.97 148.47 481.57 149.79 482.53 149.79 C 483.43 149.79 484.09 149.25 484.09 148.23 C 484.09 147.09 483.49 146.01 481.99 144.69 C 480.49 143.25 478.21 141.87 475.15 140.61 L 474.37 141.69 Z  M 462.97 158.61 C 465.61 158.01 468.37 157.65 471.01 157.65 C 472.81 157.65 474.85 157.83 476.29 158.37 C 476.83 158.55 477.01 158.85 476.53 159.21 C 475.75 159.99 472.27 162.27 470.23 163.59 L 471.01 164.67 C 473.05 163.65 475.87 162.21 477.73 161.55 C 479.29 160.89 480.19 160.71 481.27 160.59 C 482.71 160.47 483.73 160.17 483.73 159.09 C 483.73 158.07 482.95 157.17 481.57 156.45 C 480.13 155.79 477.43 155.01 473.47 155.01 C 469.51 155.01 465.43 156.03 462.61 157.17 L 462.97 158.61 Z  M 448.51 139.05 C 449.77 139.29 451.09 139.65 452.29 140.07 C 453.37 140.61 453.67 141.15 453.55 142.47 C 453.37 144.33 452.83 147.15 452.05 150.27 C 449.77 150.81 447.07 151.23 444.25 151.23 C 441.31 151.23 439.51 150.09 436.93 147.81 L 435.91 148.59 C 437.89 153.15 440.77 154.47 444.25 154.47 C 446.47 154.47 448.99 154.17 451.15 153.75 C 450.43 156.27 449.65 158.79 448.87 161.01 C 445.93 169.41 442.57 175.41 439.51 179.97 C 438.61 181.59 438.07 182.13 438.07 183.45 C 438.07 184.83 438.79 185.91 439.81 185.91 C 441.01 185.91 441.61 185.37 442.45 183.99 C 445.03 179.79 448.87 170.13 451.69 162.03 C 452.77 159.15 453.79 155.91 454.63 152.97 C 458.95 151.89 463.63 150.21 465.01 149.61 C 467.23 148.65 467.89 148.05 467.89 146.91 C 467.89 145.83 466.33 145.23 465.31 145.23 C 464.83 145.23 464.17 145.59 463.27 146.07 C 461.41 147.03 458.89 148.17 455.71 149.25 C 456.19 147.57 456.55 146.07 456.85 144.99 C 457.57 142.71 458.41 141.21 458.41 140.19 C 458.35 138.81 454.57 137.37 452.41 137.25 C 450.97 137.19 449.89 137.37 448.63 137.67 L 448.51 139.05 Z  M 457.75 171.39 C 457.81 173.49 458.05 175.77 459.07 178.05 C 460.93 183.33 466.45 185.43 473.41 185.43 C 476.89 185.43 479.59 185.07 481.45 184.65 C 483.19 184.29 484.75 183.63 484.75 182.43 C 484.75 181.05 483.19 180.39 481.81 180.39 C 480.07 180.39 478.15 181.53 472.15 181.53 C 466.99 181.53 463.33 180.15 461.23 176.91 C 460.09 175.11 459.55 172.95 459.19 171.21 L 457.75 171.39 Z  M 479.65 137.97 C 482.35 139.83 483.73 141.27 485.05 142.77 C 486.37 144.27 486.97 145.65 487.93 145.65 C 488.77 145.65 489.37 145.17 489.37 144.15 C 489.37 142.89 488.77 141.75 487.21 140.43 C 485.71 139.17 483.49 138.09 480.31 136.89 L 479.65 137.97 Z " />
    <path
      d=" M 414.59 160.47 C 414.77 156.81 415.13 149.13 415.31 145.65 C 415.43 143.85 416.63 143.19 416.63 141.63 C 416.63 139.83 411.29 136.83 408.77 136.83 C 407.21 136.83 404.75 138.21 403.13 139.41 L 403.19 140.37 C 404.57 140.79 405.89 141.15 406.79 141.75 C 407.93 142.41 408.05 143.07 408.11 144.45 C 408.35 147.87 408.41 155.97 407.99 160.47 C 407.09 172.35 401.09 180.21 389.69 186.45 L 390.35 187.53 C 405.17 183.27 413.75 174.81 414.59 160.47 Z  M 386.45 143.31 C 387.35 143.85 387.65 144.33 387.77 145.53 C 388.13 147.99 388.13 154.35 388.13 157.29 C 388.13 161.43 387.29 163.17 387.29 164.67 C 387.29 168.21 389.21 171.21 391.19 171.21 C 393.23 171.21 394.43 169.89 394.43 166.71 C 394.43 162.63 394.37 152.07 394.55 149.49 C 394.67 147.03 395.99 146.13 395.99 144.57 C 395.99 142.41 390.47 139.41 387.83 139.41 C 386.27 139.41 384.53 140.07 383.03 140.79 L 383.03 141.75 C 384.35 142.23 385.61 142.77 386.45 143.31 Z  M 319.25 147.27 C 319.19 148.65 319.43 150.27 319.79 151.35 C 320.51 153.63 323.45 156.81 325.43 156.81 C 326.99 156.81 328.67 155.67 331.25 155.07 C 334.91 154.23 346.97 152.61 349.61 152.61 C 350.15 152.61 350.33 152.85 350.27 153.39 C 350.09 156.69 348.77 165.09 347.57 171.57 C 340.43 172.29 326.87 173.85 324.11 173.85 C 321.65 173.85 320.09 172.53 318.35 170.79 L 317.51 171.15 C 317.39 172.17 317.69 174.09 318.23 175.47 C 319.19 177.81 322.25 180.75 324.71 180.75 C 326.45 180.75 327.89 179.91 330.53 179.25 C 333.53 178.47 339.65 177.27 345.41 177.27 C 350.39 177.27 353.63 178.11 355.79 178.11 C 357.71 178.11 358.67 177.39 358.67 176.01 C 358.67 174.15 357.11 172.05 354.17 171.39 C 355.61 165.81 356.93 160.23 357.83 156.87 C 358.37 154.83 360.35 153.87 360.35 152.19 C 360.35 149.61 354.05 145.65 351.83 145.65 C 350.15 145.65 349.73 147.45 347.15 147.75 C 343.85 148.17 328.43 149.85 325.25 149.85 C 323.15 149.85 322.01 148.59 320.15 146.91 L 319.25 147.27 Z  M 352.79 139.35 C 355.61 141.75 357.11 143.85 358.19 145.53 C 359.15 146.91 359.99 147.81 360.95 147.81 C 362.21 147.81 363.11 146.85 363.11 145.59 C 363.11 144.45 362.69 143.43 361.37 142.23 C 359.51 140.49 356.69 139.41 353.33 138.51 L 352.79 139.35 Z  M 358.37 135.09 C 361.49 137.49 362.75 139.23 363.83 140.61 C 364.97 142.05 365.69 143.07 366.83 143.07 C 368.09 143.07 368.81 142.23 368.81 140.91 C 368.81 139.53 368.27 138.39 366.71 137.19 C 365.03 135.99 362.27 134.97 358.85 134.31 L 358.37 135.09 Z  M 223.25 137.01 C 225.05 137.91 226.73 139.11 226.73 140.19 C 226.73 140.97 226.19 142.23 225.17 143.85 C 220.73 150.75 208.25 163.47 195.53 170.79 L 196.19 171.93 C 206.75 168.45 215.99 161.73 220.19 158.25 C 220.43 158.91 220.55 159.69 220.55 160.59 C 220.61 163.23 220.55 170.01 219.89 175.89 C 219.65 177.87 219.23 179.25 219.23 180.39 C 219.23 183.39 220.67 186.45 223.79 186.45 C 225.95 186.45 227.09 184.83 227.09 182.25 C 227.09 179.19 226.67 170.55 226.97 162.51 C 226.97 160.77 227.51 159.69 227.51 158.61 C 227.51 157.47 226.01 156.33 223.97 154.95 C 227.57 151.59 230.57 148.41 232.67 146.25 C 234.29 144.57 235.79 144.63 235.79 142.83 C 235.79 140.67 232.19 137.31 228.89 136.35 C 227.09 135.75 225.17 135.87 223.55 135.99 L 223.25 137.01 Z  M 255.35 156.15 C 255.17 157.59 254.99 159.33 255.53 160.71 C 256.61 163.65 260.33 167.55 262.67 167.55 C 264.95 167.55 265.85 166.11 270.17 165.69 C 274.79 165.15 288.23 164.31 292.79 164.31 C 296.99 164.31 299.09 164.49 301.49 164.49 C 304.01 164.49 305.45 163.65 305.45 161.91 C 305.45 159.33 302.33 157.47 298.73 157.47 C 297.29 157.47 294.59 157.95 290.57 158.31 C 286.91 158.61 268.79 159.81 262.37 159.81 C 259.19 159.81 258.17 158.19 256.37 155.79 L 255.35 156.15 Z " />
    <path
      d=" M 90.83 161.79 C 90.83 160.83 90.89 159.81 90.95 158.73 C 94.43 157.11 97.61 156.27 101.33 156.15 C 99.65 160.05 95.75 165.45 91.91 169.53 C 91.31 167.55 90.83 165.09 90.83 161.79 Z  M 78.71 177.33 C 77.27 177.33 76.67 176.67 76.67 175.05 C 76.67 170.91 81.17 164.55 88.01 160.29 C 87.95 161.07 87.95 161.79 87.95 162.51 C 87.95 165.69 88.31 169.35 89.03 172.35 C 85.73 175.11 81.71 177.33 78.71 177.33 Z  M 98.87 150.87 C 101.09 152.07 102.05 152.85 101.87 154.35 C 97.91 154.41 94.13 155.25 91.19 156.39 C 91.49 153.87 91.97 151.17 92.45 148.77 C 98.93 147.75 106.01 145.65 108.53 144.57 C 109.61 144.09 109.91 143.61 109.91 142.83 C 109.91 141.81 108.77 141.15 106.73 141.15 C 105.65 141.15 101.45 143.97 93.17 145.59 C 93.41 144.57 93.59 143.67 93.83 142.95 C 94.37 140.85 95.45 140.67 95.45 139.41 C 95.45 138.27 92.39 136.23 88.97 136.23 C 88.25 136.23 86.99 136.53 85.97 136.77 L 85.91 138.03 C 87.17 138.15 88.37 138.33 89.45 138.69 C 90.29 139.05 90.53 139.29 90.53 140.31 C 90.53 141.33 90.23 143.49 89.81 146.13 C 88.01 146.37 86.15 146.49 84.29 146.49 C 81.29 146.49 79.37 146.01 76.19 143.43 L 75.23 144.39 C 77.81 148.35 79.97 149.49 83.87 149.49 C 85.61 149.49 87.53 149.37 89.33 149.19 C 88.91 151.95 88.49 154.95 88.19 157.77 C 81.29 161.37 73.43 168.51 73.43 176.37 C 73.43 179.55 74.93 181.05 77.63 181.05 C 81.23 181.05 85.61 179.07 89.93 175.35 C 90.65 177.15 91.61 178.35 92.69 178.35 C 93.71 178.35 94.49 177.87 94.49 176.73 C 94.49 175.47 93.77 174.15 92.99 172.41 C 97.97 167.31 102.35 161.01 104.51 156.33 C 111.29 157.23 115.31 162.21 115.31 167.97 C 115.31 177.33 106.25 182.73 91.61 184.65 L 91.85 185.97 C 107.51 185.61 119.45 180.39 119.45 169.05 C 119.45 162.33 114.35 155.61 105.17 154.53 C 105.35 153.69 105.23 153.09 104.69 152.43 C 103.49 151.11 101.63 150.39 99.47 149.85 L 98.87 150.87 Z  M 126.09 174.09 C 131.43 177.87 133.89 181.53 135.81 185.49 C 136.65 187.29 137.43 188.01 138.69 188.01 C 140.13 188.01 141.15 187.05 141.15 185.31 C 141.15 183.99 140.79 182.85 139.71 181.29 C 137.73 178.41 133.95 175.35 126.75 173.07 L 126.09 174.09 Z  M 29.63 137.97 C 33.47 139.05 35.39 140.85 36.11 142.23 C 36.53 143.19 36.29 143.61 35.45 143.67 C 33.71 143.85 28.73 144.09 23.75 144.51 C 21.89 144.63 19.43 144.27 18.77 147.33 C 18.17 149.67 19.43 150.63 20.51 151.95 C 21.41 153.03 22.43 154.29 23.69 156.33 L 18.65 158.91 C 16.49 159.99 14.75 160.77 13.49 160.77 C 12.11 160.77 10.85 159.21 9.95 157.89 L 8.69 158.43 C 8.69 159.81 8.99 160.83 9.53 161.79 C 10.49 163.41 13.25 165.21 14.81 165.21 C 16.49 165.21 17.27 163.95 20.21 162.15 C 21.89 161.13 23.63 160.05 25.37 159.03 C 28.97 164.85 31.43 171.39 32.93 175.95 C 34.13 179.85 34.73 183.21 35.15 184.47 C 35.63 186.09 36.29 186.69 37.25 186.69 C 38.57 186.69 39.35 185.49 39.35 183.81 C 39.35 181.89 38.33 178.53 37.31 175.89 C 35.03 170.55 32.09 163.77 28.13 157.35 C 35.57 153.03 43.07 149.43 49.25 149.43 C 53.99 149.43 57.59 152.37 57.59 156.69 C 57.59 161.19 53.99 163.89 48.83 163.89 C 44.33 163.89 41.09 162.69 37.07 159.75 L 35.99 160.71 C 39.95 165.33 44.81 167.31 49.01 167.31 C 55.73 167.31 61.49 163.95 61.49 157.47 C 61.49 151.59 56.75 147.39 49.49 147.39 C 42.71 147.39 34.91 150.69 26.51 154.89 C 24.77 152.31 22.37 149.31 22.37 148.05 C 22.37 146.85 23.09 146.61 24.89 146.37 C 28.31 145.95 33.77 146.01 36.11 146.25 C 37.73 146.37 38.75 146.91 39.77 146.91 C 40.79 146.91 41.45 146.31 41.45 144.93 C 41.45 143.49 40.67 142.05 39.47 140.67 C 37.91 138.93 34.97 137.19 30.17 136.71 L 29.63 137.97 Z " />
  </g>
</svg>
