<?xml version="1.0" encoding="UTF-8" standalone="no"?>
<svg xmlns="http://www.w3.org/2000/svg" xmlns:xlink="http://www.w3.org/1999/xlink" style="isolation:isolate"
  viewBox="0 0 560 140" width="560pt" height="140pt">
  <style>
    :root {
      --text-color: black;
    }

    .name {
      animation-duration: 18s;
      animation-fill-mode: both;
      animation-name: scroll;
      animation-iteration-count: infinite;
      animation-fill-mode: both;
      opacity: 0;
      transform-origin: center center;
      fill: var(--text-color);
    }

    #name-1 {
      animation-delay: 0s;
    }

    #name-2 {
      animation-delay: 6s;
    }

    #name-3 {
      animation-delay: 12s;
    }

    .link {
      pointer-events: bounding-box;
      fill: var(--text-color);
      cursor: pointer;
    }

    .link-underline {
      stroke: var(--text-color);
      transition: 500ms;
      stroke-width: 1px;
      opacity: 0.9;
    }

    .link:hover .link-underline {
      stroke-width: 2px;
      opacity: 1;
    }

    @keyframes scroll {
      0% {
        transform: translateY(40px) perspective(1000px) rotateX(-35deg);
        opacity: 0;
      }

      5.55%,
      33.33% {
        transform: translateY(0) perspective(1000px) rotateX(0deg);
        opacity: 1;
      }

      38.88% {
        transform: translateY(-40px) perspective(1000px) rotateX(35deg);
        opacity: 0;
      }
    }
  </style>
  <g id="name-1" class="name" style="isolation:isolate">
    <path
      d=" M 229.18 50.16 L 229.18 84.42 L 232.84 85.14 L 232.84 85.14 Q 233.56 85.32 233.56 86.22 L 233.56 86.22 L 233.56 88.8 L 219.1 88.8 L 219.1 86.22 L 219.1 86.22 Q 219.1 85.26 219.94 85.08 L 219.94 85.08 L 223.42 84.42 L 223.42 50.16 L 219.82 49.44 L 219.82 49.44 Q 219.1 49.26 219.1 48.36 L 219.1 48.36 L 219.1 45.84 L 233.56 45.84 L 233.56 48.36 L 233.56 48.36 Q 233.56 49.32 232.66 49.5 L 232.66 49.5 L 229.18 50.16 Z  M 242.62 54.54 L 242.14 59.16 L 242.14 59.16 Q 242.08 60 241.6 60.66 L 241.6 60.66 L 241.6 60.66 Q 241.24 61.2 240.28 61.2 L 240.28 61.2 L 240.28 61.2 Q 239.5 61.2 239.08 60.66 L 239.08 60.66 L 239.08 60.66 Q 238.66 60.18 238.48 59.16 L 238.48 59.16 L 238 54.48 L 238 45.84 L 242.62 45.84 L 242.62 54.54 Z  M 256.54 62.7 L 256.54 62.7 Q 260.38 57.96 265.12 57.96 L 265.12 57.96 L 265.12 57.96 Q 268.24 57.96 270.16 59.7 L 270.16 59.7 L 270.16 59.7 Q 272.02 61.38 272.92 64.32 L 272.92 64.32 L 272.92 64.32 Q 274.24 61.08 276.88 59.52 L 276.88 59.52 L 276.88 59.52 Q 279.64 57.96 282.16 57.96 L 282.16 57.96 L 282.16 57.96 Q 284.8 57.96 286.84 58.74 L 286.84 58.74 L 286.84 58.74 Q 288.76 59.46 290.08 60.96 L 290.08 60.96 L 290.08 60.96 Q 292.72 63.96 292.72 69.48 L 292.72 69.48 L 292.72 84.48 L 292.72 84.48 Q 295.72 85.02 296.2 85.2 L 296.2 85.2 L 296.2 85.2 Q 297.1 85.38 297.1 86.28 L 297.1 86.28 L 297.1 88.92 L 287.44 88.92 L 287.44 69.54 L 287.44 69.54 Q 287.44 65.88 285.88 64.14 L 285.88 64.14 L 285.88 64.14 Q 284.2 62.28 281.32 62.28 L 281.32 62.28 L 281.32 62.28 Q 278.56 62.28 276.76 64.08 L 276.76 64.08 L 276.76 64.08 Q 274.78 66.06 274.78 69.48 L 274.78 69.48 L 274.78 84.48 L 274.78 84.48 Q 275.02 84.54 275.8 84.72 L 275.8 84.72 L 275.8 84.72 Q 276.58 84.9 278.2 85.2 L 278.2 85.2 L 278.2 85.2 Q 279.1 85.38 279.1 86.28 L 279.1 86.28 L 279.1 88.86 L 269.44 88.86 L 269.44 69.48 L 269.44 69.48 Q 269.44 62.28 263.68 62.28 L 263.68 62.28 L 263.68 62.28 Q 259.96 62.28 256.9 66.24 L 256.9 66.24 L 256.9 84.48 L 258.52 84.78 L 260.32 85.14 L 260.32 85.14 Q 261.22 85.32 261.22 86.28 L 261.22 86.28 L 261.22 88.8 L 247.24 88.8 L 247.24 86.28 L 247.24 86.28 Q 247.24 85.32 248.08 85.14 L 248.08 85.14 L 251.56 84.48 L 251.56 62.82 L 251.56 62.82 Q 248.56 62.28 248.08 62.1 L 248.08 62.1 L 248.08 62.1 Q 247.24 61.92 247.24 60.96 L 247.24 60.96 L 247.24 58.44 L 254.68 58.44 L 254.68 58.44 Q 255.76 58.44 256.12 59.52 L 256.12 59.52 L 256.54 62.64 L 256.54 62.7 Z  M 168.16 50.16 L 168.16 84.42 L 171.76 85.14 L 171.76 85.14 Q 172.48 85.32 172.48 86.22 L 172.48 86.22 L 172.48 88.8 L 157.96 88.8 L 157.96 86.22 L 157.96 86.22 Q 157.96 85.26 158.92 85.08 L 158.92 85.08 L 162.28 84.42 L 162.28 69.24 L 139.12 69.24 L 139.12 84.42 L 139.12 84.42 Q 143.44 85.32 143.44 86.22 L 143.44 86.22 L 143.44 88.8 L 128.98 88.8 L 128.98 86.22 L 128.98 86.22 Q 128.98 85.26 129.88 85.08 L 129.88 85.08 L 133.3 84.42 L 133.3 50.16 L 129.7 49.44 L 129.7 49.44 Q 128.98 49.26 128.98 48.36 L 128.98 48.36 L 128.98 45.84 L 143.44 45.84 L 143.44 48.36 L 143.44 48.36 Q 143.44 49.26 142.84 49.44 L 142.84 49.44 L 142.84 49.44 Q 142.18 49.62 139.18 50.16 L 139.18 50.16 L 139.18 64.98 L 162.34 64.98 L 162.34 50.16 L 158.74 49.44 L 158.74 49.44 Q 158.02 49.26 158.02 48.36 L 158.02 48.36 L 158.02 45.84 L 172.54 45.84 L 172.54 48.36 L 172.54 48.36 Q 172.54 49.32 171.64 49.5 L 171.64 49.5 L 168.16 50.16 Z  M 180.58 51.54 L 180.58 51.54 Q 180.1 51.06 179.74 50.34 L 179.74 50.34 L 179.74 50.34 Q 179.44 49.74 179.44 48.9 L 179.44 48.9 L 179.44 48.9 Q 179.44 48 179.74 47.4 L 179.74 47.4 L 179.74 47.4 Q 180.16 46.56 180.58 46.14 L 180.58 46.14 L 180.58 46.14 Q 181.06 45.66 181.78 45.3 L 181.78 45.3 L 181.78 45.3 Q 182.38 45 183.22 45 L 183.22 45 L 183.22 45 Q 184.06 45 184.66 45.3 L 184.66 45.3 L 184.66 45.3 Q 185.38 45.66 185.86 46.14 L 185.86 46.14 L 185.86 46.14 Q 186.28 46.56 186.7 47.4 L 186.7 47.4 L 186.7 47.4 Q 187.06 48.12 187.06 48.9 L 187.06 48.9 L 187.06 48.9 Q 187.06 49.62 186.7 50.34 L 186.7 50.34 L 186.7 50.34 Q 186.34 51.06 185.86 51.54 L 185.86 51.54 L 185.86 51.54 Q 185.38 52.02 184.66 52.38 L 184.66 52.38 L 184.66 52.38 Q 184.06 52.68 183.22 52.68 L 183.22 52.68 L 183.22 52.68 Q 182.38 52.68 181.78 52.38 L 181.78 52.38 L 181.78 52.38 Q 181.06 52.02 180.58 51.54 L 180.58 51.54 Z  M 189.28 85.08 L 189.28 85.08 Q 189.7 85.14 189.94 85.47 L 189.94 85.47 L 189.94 85.47 Q 190.18 85.8 190.18 86.22 L 190.18 86.22 L 190.18 88.8 L 176.2 88.8 L 176.2 86.22 L 176.2 86.22 Q 176.2 85.8 176.44 85.47 L 176.44 85.47 L 176.44 85.47 Q 176.68 85.14 177.1 85.08 L 177.1 85.08 L 180.58 84.42 L 180.58 62.76 L 177.1 62.1 L 177.1 62.1 Q 176.68 62.04 176.44 61.71 L 176.44 61.71 L 176.44 61.71 Q 176.2 61.38 176.2 60.96 L 176.2 60.96 L 176.2 58.44 L 185.86 58.44 L 185.86 84.42 L 189.28 85.08 Z  M 195.94 96.96 L 195.04 96.06 L 195.04 96.06 Q 194.68 95.7 194.68 95.22 L 194.68 95.22 L 194.68 95.22 Q 194.68 94.92 194.83 94.71 L 194.83 94.71 L 194.83 94.71 Q 194.98 94.5 195.25 94.23 L 195.25 94.23 L 195.25 94.23 Q 195.52 93.96 195.88 93.54 L 195.88 93.54 L 195.88 93.54 Q 196.84 92.4 197.47 91.14 L 197.47 91.14 L 197.47 91.14 Q 198.1 89.88 198.28 88.8 L 198.28 88.8 L 197.92 88.8 L 197.92 88.8 Q 196.3 88.8 195.34 87.72 L 195.34 87.72 L 195.34 87.72 Q 194.38 86.64 194.38 85.14 L 194.38 85.14 L 194.38 85.14 Q 194.38 83.76 195.43 82.74 L 195.43 82.74 L 195.43 82.74 Q 196.48 81.72 197.92 81.72 L 197.92 81.72 L 197.92 81.72 Q 199.78 81.72 200.71 82.92 L 200.71 82.92 L 200.71 82.92 Q 201.64 84.12 201.64 85.98 L 201.64 85.98 L 201.64 85.98 Q 201.64 88.98 199.99 92.01 L 199.99 92.01 L 199.99 92.01 Q 198.34 95.04 195.94 96.96 L 195.94 96.96 Z " />
    <path
      d=" M 338.86 50.82 L 338.5 50.88 L 338.5 50.88 Q 338.32 50.88 338.11 50.94 L 338.11 50.94 L 338.11 50.94 Q 337.9 51 337.6 51.06 L 337.6 51.06 L 335.86 51.36 L 335.86 82.86 L 337.6 83.16 L 337.6 83.16 Q 337.9 83.22 338.11 83.28 L 338.11 83.28 L 338.11 83.28 Q 338.32 83.34 338.5 83.34 L 338.5 83.34 L 338.86 83.4 L 338.86 83.4 Q 340.36 83.76 340.36 85.26 L 340.36 85.26 L 340.36 88.8 L 323.2 88.8 L 323.2 85.26 L 323.2 85.26 Q 323.2 83.76 324.7 83.4 L 324.7 83.4 L 325.06 83.34 L 325.96 83.16 L 327.76 82.86 L 327.76 51.36 L 325.96 51.06 L 325.96 51.06 Q 325.66 51 325.45 50.94 L 325.45 50.94 L 325.45 50.94 Q 325.24 50.88 325.06 50.88 L 325.06 50.88 L 324.7 50.82 L 324.7 50.82 Q 323.2 50.46 323.2 48.96 L 323.2 48.96 L 323.2 45.42 L 340.36 45.42 L 340.36 48.96 L 340.36 48.96 Q 340.36 50.46 338.86 50.82 L 338.86 50.82 Z  M 355.9 57.48 L 355.9 57.48 Q 357.64 57.48 359.62 57.9 L 359.62 57.9 L 359.62 57.9 Q 361.3 58.26 362.8 59.1 L 362.8 59.1 L 371.62 59.1 L 371.62 61.86 L 371.62 61.86 Q 371.62 62.58 371.26 62.94 L 371.26 62.94 L 371.26 62.94 Q 370.9 63.3 370.06 63.48 L 370.06 63.48 L 367.3 63.96 L 367.3 63.96 Q 367.54 64.56 367.72 65.64 L 367.72 65.64 L 367.72 65.64 Q 367.9 66.54 367.9 67.44 L 367.9 67.44 L 367.9 67.44 Q 367.9 69.78 367 71.58 L 367 71.58 L 367 71.58 Q 366.04 73.5 364.48 74.7 L 364.48 74.7 L 364.48 74.7 Q 362.92 75.9 360.64 76.68 L 360.64 76.68 L 360.64 76.68 Q 358.48 77.4 355.9 77.4 L 355.9 77.4 L 355.9 77.4 Q 353.86 77.4 352.48 77.1 L 352.48 77.1 L 352.48 77.1 Q 351.04 78 351.04 79.02 L 351.04 79.02 L 351.04 79.02 Q 351.04 79.98 351.88 80.4 L 351.88 80.4 L 351.88 80.4 Q 352.72 80.82 354.16 81 L 354.16 81 L 354.16 81 Q 356.08 81.24 357.34 81.24 L 357.34 81.24 L 357.34 81.24 Q 357.94 81.24 358.84 81.27 L 358.84 81.27 L 358.84 81.27 Q 359.74 81.3 360.94 81.42 L 360.94 81.42 L 360.94 81.42 Q 362.8 81.6 364.6 81.96 L 364.6 81.96 L 364.6 81.96 Q 366.16 82.26 367.72 83.16 L 367.72 83.16 L 367.72 83.16 Q 369.16 83.94 370 85.32 L 370 85.32 L 370 85.32 Q 370.84 86.64 370.84 88.92 L 370.84 88.92 L 370.84 88.92 Q 370.84 90.96 369.82 92.88 L 369.82 92.88 L 369.82 92.88 Q 368.86 94.8 366.94 96.3 L 366.94 96.3 L 366.94 96.3 Q 365.14 97.8 362.26 98.7 L 362.26 98.7 L 362.26 98.7 Q 359.44 99.6 355.96 99.6 L 355.96 99.6 L 355.96 99.6 Q 352.24 99.6 349.84 98.94 L 349.84 98.94 L 349.84 98.94 Q 347.32 98.22 345.58 97.14 L 345.58 97.14 L 345.58 97.14 Q 343.9 96.12 343.06 94.56 L 343.06 94.56 L 343.06 94.56 Q 342.22 93.06 342.22 91.5 L 342.22 91.5 L 342.22 91.5 Q 342.22 89.22 343.54 87.84 L 343.54 87.84 L 343.54 87.84 Q 344.8 86.46 347.2 85.56 L 347.2 85.56 L 347.2 85.56 Q 346.12 84.96 345.4 83.88 L 345.4 83.88 L 345.4 83.88 Q 344.68 82.8 344.68 81.12 L 344.68 81.12 L 344.68 81.12 Q 344.68 80.34 344.92 79.68 L 344.92 79.68 L 344.92 79.68 Q 345.28 78.72 345.64 78.24 L 345.64 78.24 L 345.64 78.24 Q 346.24 77.46 346.9 76.86 L 346.9 76.86 L 346.9 76.86 Q 347.38 76.44 348.7 75.72 L 348.7 75.72 L 348.7 75.72 Q 346.36 74.46 344.98 72.36 L 344.98 72.36 L 344.98 72.36 Q 343.66 70.32 343.66 67.44 L 343.66 67.44 L 343.66 67.44 Q 343.66 65.1 344.56 63.3 L 344.56 63.3 L 344.56 63.3 Q 345.46 61.5 347.14 60.18 L 347.14 60.18 L 347.14 60.18 Q 348.76 58.92 350.98 58.2 L 350.98 58.2 L 350.98 58.2 Q 353.26 57.48 355.9 57.48 L 355.9 57.48 Z  M 355.9 72.66 L 355.9 72.66 Q 357.28 72.66 358.3 72.3 L 358.3 72.3 L 358.3 72.3 Q 359.32 71.94 359.98 71.28 L 359.98 71.28 L 359.98 71.28 Q 360.58 70.8 361 69.66 L 361 69.66 L 361 69.66 Q 361.36 68.76 361.36 67.62 L 361.36 67.62 L 361.36 67.62 Q 361.36 65.4 359.98 64.02 L 359.98 64.02 L 359.98 64.02 Q 358.66 62.7 355.9 62.7 L 355.9 62.7 L 355.9 62.7 Q 353.08 62.7 351.76 64.02 L 351.76 64.02 L 351.76 64.02 Q 350.44 65.34 350.44 67.62 L 350.44 67.62 L 350.44 67.62 Q 350.44 68.88 350.74 69.66 L 350.74 69.66 L 350.74 69.66 Q 351.1 70.56 351.76 71.22 L 351.76 71.22 L 351.76 71.22 Q 352.54 72 353.5 72.3 L 353.5 72.3 L 353.5 72.3 Q 354.58 72.66 355.9 72.66 L 355.9 72.66 Z  M 364 90.18 L 364 90.18 Q 364 89.28 363.46 88.74 L 363.46 88.74 L 363.46 88.74 Q 362.92 88.2 362.02 87.84 L 362.02 87.84 L 362.02 87.84 Q 361.36 87.6 359.8 87.36 L 359.8 87.36 L 359.8 87.36 Q 358.84 87.24 357.16 87.12 L 357.16 87.12 L 354.28 87 L 354.28 87 Q 352.36 86.88 351.46 86.76 L 351.46 86.76 L 351.46 86.76 Q 350.08 87.54 349.42 88.38 L 349.42 88.38 L 349.42 88.38 Q 348.64 89.34 348.64 90.54 L 348.64 90.54 L 348.64 90.54 Q 348.64 91.2 349.06 92.04 L 349.06 92.04 L 349.06 92.04 Q 349.42 92.76 350.32 93.3 L 350.32 93.3 L 350.32 93.3 Q 351.16 93.78 352.66 94.08 L 352.66 94.08 L 352.66 94.08 Q 354.28 94.38 356.08 94.38 L 356.08 94.38 L 356.08 94.38 Q 358.18 94.38 359.68 94.02 L 359.68 94.02 L 359.68 94.02 Q 361.3 93.66 362.14 93.18 L 362.14 93.18 L 362.14 93.18 Q 363.1 92.7 363.58 91.86 L 363.58 91.86 L 363.58 91.86 Q 364 91.2 364 90.18 L 364 90.18 Z  M 388.72 57.54 L 388.72 57.54 Q 392.02 57.54 394.96 58.68 L 394.96 58.68 L 394.96 58.68 Q 397.84 59.82 399.76 61.8 L 399.76 61.8 L 399.76 61.8 Q 401.68 63.78 402.76 66.78 L 402.76 66.78 L 402.76 66.78 Q 403.84 69.72 403.84 73.32 L 403.84 73.32 L 403.84 73.32 Q 403.84 76.92 402.76 79.92 L 402.76 79.92 L 402.76 79.92 Q 401.62 82.98 399.76 84.96 L 399.76 84.96 L 399.76 84.96 Q 397.78 87.06 394.96 88.14 L 394.96 88.14 L 394.96 88.14 Q 392.2 89.22 388.72 89.22 L 388.72 89.22 L 388.72 89.22 Q 385.24 89.22 382.42 88.14 L 382.42 88.14 L 382.42 88.14 Q 379.6 87.06 377.62 84.96 L 377.62 84.96 L 377.62 84.96 Q 375.52 82.8 374.5 79.92 L 374.5 79.92 L 374.5 79.92 Q 373.42 76.92 373.42 73.32 L 373.42 73.32 L 373.42 73.32 Q 373.42 69.72 374.5 66.78 L 374.5 66.78 L 374.5 66.78 Q 375.52 64.02 377.62 61.8 L 377.62 61.8 L 377.62 61.8 Q 379.54 59.82 382.42 58.68 L 382.42 58.68 L 382.42 58.68 Q 385.36 57.54 388.72 57.54 L 388.72 57.54 Z  M 388.72 83.52 L 388.72 83.52 Q 392.56 83.52 394.36 80.94 L 394.36 80.94 L 394.36 80.94 Q 396.22 78.24 396.22 73.38 L 396.22 73.38 L 396.22 73.38 Q 396.22 68.52 394.36 65.82 L 394.36 65.82 L 394.36 65.82 Q 392.56 63.18 388.72 63.18 L 388.72 63.18 L 388.72 63.18 Q 384.88 63.18 382.96 65.82 L 382.96 65.82 L 382.96 65.82 Q 381.04 68.46 381.04 73.44 L 381.04 73.44 L 381.04 73.44 Q 381.04 78.3 382.96 80.94 L 382.96 80.94 L 382.96 80.94 Q 384.82 83.52 388.72 83.52 L 388.72 83.52 Z  M 426.34 57.48 L 426.34 57.48 Q 428.68 57.48 430.12 58.5 L 430.12 58.5 L 429.16 64.08 L 429.16 64.08 Q 429.1 64.62 428.8 64.8 L 428.8 64.8 L 428.8 64.8 Q 428.44 65.04 427.96 65.04 L 427.96 65.04 L 427.96 65.04 Q 427.54 65.04 426.76 64.86 L 426.76 64.86 L 426.76 64.86 Q 425.68 64.62 424.66 64.62 L 424.66 64.62 L 424.66 64.62 Q 422.32 64.62 420.7 65.88 L 420.7 65.88 L 420.7 65.88 Q 419.2 67.02 417.94 69.66 L 417.94 69.66 L 417.94 82.86 L 420.94 83.4 L 420.94 83.4 Q 422.44 83.76 422.44 85.26 L 422.44 85.26 L 422.44 88.8 L 406 88.8 L 406 85.26 L 406 85.26 Q 406 83.76 407.5 83.4 L 407.5 83.4 L 410.5 82.86 L 410.5 63.96 L 407.5 63.42 L 407.5 63.42 Q 406 63.06 406 61.56 L 406 61.56 L 406 58.02 L 414.88 58.02 L 414.88 58.02 Q 416.02 58.02 416.44 58.44 L 416.44 58.44 L 416.44 58.44 Q 416.86 58.86 417.04 59.88 L 417.04 59.88 L 417.52 63.6 L 417.52 63.6 Q 419.14 60.66 421.36 59.1 L 421.36 59.1 L 421.36 59.1 Q 423.64 57.48 426.34 57.48 L 426.34 57.48 Z " />
  </g>
  <g id="name-2" class="name" style="isolation:isolate">
    <path
      d=" M 307.72 84.6 L 296.2 84.6 L 296.2 83.64 L 299.14 81.72 L 299.14 72.72 L 295.6 72.72 L 289.42 81.48 L 287.86 84.6 L 280.3 84.6 L 280.3 83.64 L 283.9 81.6 L 290.98 71.94 L 290.98 71.94 Q 287.62 71.4 285.82 69.69 L 285.82 69.69 L 285.82 69.69 Q 284.02 67.98 284.02 65.46 L 284.02 65.46 L 284.02 65.46 Q 284.02 62.52 285.49 60.81 L 285.49 60.81 L 285.49 60.81 Q 286.96 59.1 289.45 58.35 L 289.45 58.35 L 289.45 58.35 Q 291.94 57.6 295.06 57.6 L 295.06 57.6 L 307.72 57.6 L 307.72 58.56 L 303.94 60.48 L 303.94 81.72 L 307.72 83.64 L 307.72 84.6 Z  M 294.52 70.5 L 294.52 70.5 L 299.14 70.5 L 299.14 60.12 L 295.12 60.12 L 295.12 60.12 Q 292 60.12 290.44 61.59 L 290.44 61.59 L 290.44 61.59 Q 288.88 63.06 288.88 65.28 L 288.88 65.28 L 288.88 65.28 Q 288.88 67.38 290.29 68.94 L 290.29 68.94 L 290.29 68.94 Q 291.7 70.5 294.52 70.5 Z  M 64.4 84.6 L 49.4 84.6 L 49.4 83.64 L 54.2 81.24 L 54.2 48.36 L 49.4 45.96 L 49.4 45 L 88.4 45 L 88.4 45.96 L 83.6 48.36 L 83.6 81.24 L 88.4 83.64 L 88.4 84.6 L 73.4 84.6 L 73.4 83.64 L 78.2 81.24 L 78.2 48.3 L 59.6 48.3 L 59.6 81.24 L 64.4 83.64 L 64.4 84.6 Z  M 108.22 98.4 L 95.38 98.4 L 95.38 97.44 L 99.16 95.52 L 99.16 63.84 L 95.56 60.72 L 95.56 60.3 L 103 57 L 103.36 57 L 103.84 60.66 L 104.26 60.66 L 104.26 60.66 Q 106.54 58.74 108.64 57.87 L 108.64 57.87 L 108.64 57.87 Q 110.74 57 113.2 57 L 113.2 57 L 113.2 57 Q 116.26 57 118.6 58.56 L 118.6 58.56 L 118.6 58.56 Q 120.94 60.12 122.29 62.97 L 122.29 62.97 L 122.29 62.97 Q 123.64 65.82 123.64 69.78 L 123.64 69.78 L 123.64 69.78 Q 123.64 74.7 121.81 78.15 L 121.81 78.15 L 121.81 78.15 Q 119.98 81.6 116.86 83.4 L 116.86 83.4 L 116.86 83.4 Q 113.74 85.2 110.02 85.2 L 110.02 85.2 L 110.02 85.2 Q 106.66 85.2 103.96 84.6 L 103.96 84.6 L 103.96 95.52 L 108.22 97.44 L 108.22 98.4 Z  M 109.9 61.14 L 109.9 61.14 L 109.9 61.14 Q 108.46 61.14 106.93 61.59 L 106.93 61.59 L 106.93 61.59 Q 105.4 62.04 103.96 62.94 L 103.96 62.94 L 103.96 79.8 L 103.96 79.8 Q 105.76 81.24 107.62 81.78 L 107.62 81.78 L 107.62 81.78 Q 109.48 82.32 111.76 82.32 L 111.76 82.32 L 111.76 82.32 Q 114.64 82.32 116.74 79.89 L 116.74 79.89 L 116.74 79.89 Q 118.84 77.46 118.84 71.76 L 118.84 71.76 L 118.84 71.76 Q 118.84 68.04 117.64 65.7 L 117.64 65.7 L 117.64 65.7 Q 116.44 63.36 114.4 62.25 L 114.4 62.25 L 114.4 62.25 Q 112.36 61.14 109.9 61.14 Z  M 133.16 81.72 L 133.16 60.48 L 129.38 58.56 L 129.38 57.6 L 141.74 57.6 L 141.74 58.56 L 137.96 60.48 L 137.96 75.96 L 151.16 62.58 L 151.16 60.48 L 147.38 58.56 L 147.38 57.6 L 159.74 57.6 L 159.74 58.56 L 155.96 60.48 L 155.96 81.72 L 159.74 83.64 L 159.74 84.6 L 147.38 84.6 L 147.38 83.64 L 151.16 81.72 L 151.16 66.24 L 137.96 79.62 L 137.96 81.72 L 141.74 83.64 L 141.74 84.6 L 129.38 84.6 L 129.38 83.64 L 133.16 81.72 Z  M 169.16 81.72 L 169.16 60.48 L 165.38 58.56 L 165.38 57.6 L 176.54 57.6 L 176.54 57.6 Q 182 57.6 185.39 58.92 L 185.39 58.92 L 185.39 58.92 Q 188.78 60.24 188.78 63.72 L 188.78 63.72 L 188.78 63.72 Q 188.78 65.88 187.37 67.62 L 187.37 67.62 L 187.37 67.62 Q 185.96 69.36 182.24 70.02 L 182.24 70.02 L 182.24 70.02 Q 185.48 70.38 187.31 71.4 L 187.31 71.4 L 187.31 71.4 Q 189.14 72.42 189.92 73.77 L 189.92 73.77 L 189.92 73.77 Q 190.7 75.12 190.7 76.5 L 190.7 76.5 L 190.7 76.5 Q 190.7 80.52 187.1 82.56 L 187.1 82.56 L 187.1 82.56 Q 183.5 84.6 176.06 84.6 L 176.06 84.6 L 165.38 84.6 L 165.38 83.64 L 169.16 81.72 Z  M 178.34 60.18 L 178.34 60.18 L 173.96 60.18 L 173.96 69.12 L 178.16 69.12 L 178.16 69.12 Q 181.1 69.12 182.39 67.86 L 182.39 67.86 L 182.39 67.86 Q 183.68 66.6 183.68 64.74 L 183.68 64.74 L 183.68 64.74 Q 183.68 62.88 182.48 61.53 L 182.48 61.53 L 182.48 61.53 Q 181.28 60.18 178.34 60.18 Z  M 178.1 71.4 L 178.1 71.4 L 173.96 71.4 L 173.96 82.02 L 177.86 82.02 L 177.86 82.02 Q 181.76 82.02 183.53 80.73 L 183.53 80.73 L 183.53 80.73 Q 185.3 79.44 185.3 77.04 L 185.3 77.04 L 185.3 77.04 Q 185.3 74.4 183.59 72.9 L 183.59 72.9 L 183.59 72.9 Q 181.88 71.4 178.1 71.4 Z  M 208.04 85.2 L 208.04 85.2 L 208.04 85.2 Q 202.22 85.2 198.86 81.66 L 198.86 81.66 L 198.86 81.66 Q 195.5 78.12 195.5 72.3 L 195.5 72.3 L 195.5 72.3 Q 195.5 67.8 197.27 64.35 L 197.27 64.35 L 197.27 64.35 Q 199.04 60.9 201.95 58.95 L 201.95 58.95 L 201.95 58.95 Q 204.86 57 208.28 57 L 208.28 57 L 208.28 57 Q 213.02 57 215.75 60.3 L 215.75 60.3 L 215.75 60.3 Q 218.48 63.6 218.48 69.78 L 218.48 69.78 L 218.18 70.08 L 200.24 70.08 L 200.24 70.08 Q 200.3 72.84 201.32 75.27 L 201.32 75.27 L 201.32 75.27 Q 202.34 77.7 204.59 79.2 L 204.59 79.2 L 204.59 79.2 Q 206.84 80.7 210.62 80.7 L 210.62 80.7 L 210.62 80.7 Q 213.92 80.7 218.36 78.3 L 218.36 78.3 L 218.54 78.3 L 218.54 78.9 L 218.54 78.9 Q 217.16 81.48 214.43 83.34 L 214.43 83.34 L 214.43 83.34 Q 211.7 85.2 208.04 85.2 Z  M 207.32 59.64 L 207.32 59.64 L 207.32 59.64 Q 204.44 59.64 202.61 61.65 L 202.61 61.65 L 202.61 61.65 Q 200.78 63.66 200.36 67.32 L 200.36 67.32 L 213.92 67.32 L 213.92 67.32 Q 213.26 63.24 211.61 61.44 L 211.61 61.44 L 211.61 61.44 Q 209.96 59.64 207.32 59.64 Z  M 224.26 67.86 L 223.3 67.86 L 223.3 57.6 L 249.22 57.6 L 249.22 67.86 L 248.26 67.86 L 244.18 60.42 L 238.66 60.42 L 238.66 81.72 L 243.28 83.64 L 243.28 84.6 L 229.24 84.6 L 229.24 83.64 L 233.86 81.72 L 233.86 60.42 L 228.34 60.42 L 224.26 67.86 Z  M 252.16 96.9 L 252.16 96.9 L 252.16 95.64 L 252.16 95.64 Q 254.68 94.32 255.82 92.64 L 255.82 92.64 L 255.82 92.64 Q 256.96 90.96 256.96 89.1 L 256.96 89.1 L 256.96 89.1 Q 256.96 87.42 256.21 86.31 L 256.21 86.31 L 256.21 86.31 Q 255.46 85.2 253.96 84.42 L 253.96 84.42 L 251.92 83.34 L 251.74 82.74 L 253.48 79.74 L 253.48 79.74 Q 253.9 79.08 254.2 78.75 L 254.2 78.75 L 254.2 78.75 Q 254.5 78.42 254.98 78.42 L 254.98 78.42 L 254.98 78.42 Q 255.46 78.42 256.48 78.96 L 256.48 78.96 L 256.48 78.96 Q 258.34 80.04 259.39 81.96 L 259.39 81.96 L 259.39 81.96 Q 260.44 83.88 260.44 86.1 L 260.44 86.1 L 260.44 86.1 Q 260.44 89.28 258.52 92.04 L 258.52 92.04 L 258.52 92.04 Q 256.6 94.8 252.16 96.9 Z " />
    <path
      d=" M 347.98 84.6 L 329.14 84.6 L 329.14 83.64 L 334.24 81.18 L 334.24 48.42 L 329.14 45.96 L 329.14 45 L 347.98 45 L 347.98 45.96 L 343.3 48.42 L 343.3 73.68 L 360.52 51.12 L 360.52 48.42 L 355.72 45.96 L 355.72 45 L 374.62 45 L 374.62 45.96 L 369.58 48.42 L 369.58 81.18 L 374.62 83.64 L 374.62 84.6 L 355.72 84.6 L 355.72 83.64 L 360.52 81.18 L 360.52 56.04 L 343.3 78.6 L 343.3 81.18 L 347.98 83.64 L 347.98 84.6 Z  M 383.38 81.72 L 383.38 60.12 L 379.36 58.2 L 379.36 57.24 L 404.44 57.24 L 404.44 67.5 L 403.3 67.5 L 399.04 60.18 L 391.78 60.18 L 391.78 81.72 L 396.94 83.64 L 396.94 84.6 L 379.36 84.6 L 379.36 83.64 L 383.38 81.72 Z  M 421.94 85.2 L 421.94 85.2 L 421.94 85.2 Q 417.68 85.2 414.44 83.25 L 414.44 83.25 L 414.44 83.25 Q 411.2 81.3 409.4 78.06 L 409.4 78.06 L 409.4 78.06 Q 407.6 74.82 407.6 70.92 L 407.6 70.92 L 407.6 70.92 Q 407.6 66.96 409.4 63.72 L 409.4 63.72 L 409.4 63.72 Q 411.2 60.48 414.44 58.56 L 414.44 58.56 L 414.44 58.56 Q 417.68 56.64 421.94 56.64 L 421.94 56.64 L 421.94 56.64 Q 426.2 56.64 429.41 58.56 L 429.41 58.56 L 429.41 58.56 Q 432.62 60.48 434.42 63.72 L 434.42 63.72 L 434.42 63.72 Q 436.22 66.96 436.22 70.92 L 436.22 70.92 L 436.22 70.92 Q 436.22 74.82 434.42 78.06 L 434.42 78.06 L 434.42 78.06 Q 432.62 81.3 429.41 83.25 L 429.41 83.25 L 429.41 83.25 Q 426.2 85.2 421.94 85.2 Z  M 422.6 82.26 L 422.6 82.26 L 422.6 82.26 Q 424.34 82.26 425.45 80.85 L 425.45 80.85 L 425.45 80.85 Q 426.56 79.44 427.07 77.1 L 427.07 77.1 L 427.07 77.1 Q 427.58 74.76 427.58 72.12 L 427.58 72.12 L 427.58 72.12 Q 427.58 68.88 426.95 66 L 426.95 66 L 426.95 66 Q 426.32 63.12 424.97 61.32 L 424.97 61.32 L 424.97 61.32 Q 423.62 59.52 421.4 59.52 L 421.4 59.52 L 421.4 59.52 Q 419.6 59.52 418.46 60.93 L 418.46 60.93 L 418.46 60.93 Q 417.32 62.34 416.78 64.65 L 416.78 64.65 L 416.78 64.65 Q 416.24 66.96 416.24 69.66 L 416.24 69.66 L 416.24 69.66 Q 416.24 72.96 416.9 75.81 L 416.9 75.81 L 416.9 75.81 Q 417.56 78.66 418.97 80.46 L 418.97 80.46 L 418.97 80.46 Q 420.38 82.26 422.6 82.26 Z  M 457.46 98.4 L 440.36 98.4 L 440.36 97.44 L 444.38 95.52 L 444.38 63.84 L 440.54 61.02 L 440.54 60.3 L 451.46 56.64 L 452.18 56.64 L 452.66 60.3 L 453.02 60.3 L 453.02 60.3 Q 455.24 58.38 457.31 57.51 L 457.31 57.51 L 457.31 57.51 Q 459.38 56.64 461.78 56.64 L 461.78 56.64 L 461.78 56.64 Q 464.42 56.64 466.73 58.23 L 466.73 58.23 L 466.73 58.23 Q 469.04 59.82 470.42 62.76 L 470.42 62.76 L 470.42 62.76 Q 471.8 65.7 471.8 69.78 L 471.8 69.78 L 471.8 69.78 Q 471.8 74.58 469.88 78.03 L 469.88 78.03 L 469.88 78.03 Q 467.96 81.48 464.78 83.34 L 464.78 83.34 L 464.78 83.34 Q 461.6 85.2 457.88 85.2 L 457.88 85.2 L 457.88 85.2 Q 456.5 85.2 455.21 85.08 L 455.21 85.08 L 455.21 85.08 Q 453.92 84.96 452.78 84.6 L 452.78 84.6 L 452.78 95.52 L 457.46 97.44 L 457.46 98.4 Z  M 456.8 61.56 L 456.8 61.56 L 456.8 61.56 Q 455.72 61.56 454.79 61.86 L 454.79 61.86 L 454.79 61.86 Q 453.86 62.16 452.78 62.76 L 452.78 62.76 L 452.78 80.1 L 452.78 80.1 Q 454.52 82.08 457.52 82.08 L 457.52 82.08 L 457.52 82.08 Q 458.96 82.08 460.31 81.18 L 460.31 81.18 L 460.31 81.18 Q 461.66 80.28 462.53 78 L 462.53 78 L 462.53 78 Q 463.4 75.72 463.4 71.52 L 463.4 71.52 L 463.4 71.52 Q 463.4 66.36 461.36 63.96 L 461.36 63.96 L 461.36 63.96 Q 459.32 61.56 456.8 61.56 Z  M 487.78 67.74 L 489.34 67.74 L 489.34 67.74 Q 497.2 67.74 500.86 69.96 L 500.86 69.96 L 500.86 69.96 Q 504.52 72.18 504.52 75.66 L 504.52 75.66 L 504.52 75.66 Q 504.52 80.16 500.59 82.38 L 500.59 82.38 L 500.59 82.38 Q 496.66 84.6 489.16 84.6 L 489.16 84.6 L 475.36 84.6 L 475.36 83.64 L 479.38 81.72 L 479.38 60.12 L 475.36 58.2 L 475.36 57.24 L 492.64 57.24 L 492.64 58.2 L 487.78 60.12 L 487.78 67.74 Z  M 489.58 70.5 L 489.58 70.5 L 487.78 70.5 L 487.78 81.84 L 489.46 81.84 L 489.46 81.84 Q 492.64 81.84 494.26 80.37 L 494.26 80.37 L 494.26 80.37 Q 495.88 78.9 495.88 76.26 L 495.88 76.26 L 495.88 76.26 Q 495.88 73.68 494.29 72.09 L 494.29 72.09 L 494.29 72.09 Q 492.7 70.5 489.58 70.5 Z " />
  </g>
  <g id="name-3" class="name" style="isolation:isolate">
    <path
      d=" M 513.07 92.88 C 508.57 92.88 506.35 91.2 506.35 89.1 C 506.35 86.22 510.55 84.06 516.31 84.06 C 518.35 84.06 520.27 84.24 522.13 84.54 C 522.07 90.24 520.45 92.88 513.07 92.88 Z  M 524.35 64.2 C 525.55 64.74 527.11 65.34 528.37 65.34 C 532.15 65.34 537.07 64.32 538.93 63.72 C 540.49 63.24 541.15 62.52 541.15 61.8 C 541.15 60.48 540.01 59.7 537.67 59.7 C 536.83 59.7 535.75 60.42 533.89 61.02 C 531.79 61.62 528.43 62.22 526.15 62.22 C 525.73 62.22 525.07 62.22 524.41 62.16 C 524.53 59.4 524.83 56.52 525.19 54.96 C 525.67 53.16 526.39 52.68 526.39 51.3 C 526.39 49.86 522.67 47.88 519.55 47.88 C 517.99 47.88 516.49 48.3 515.11 48.78 L 515.23 50.04 C 516.61 50.1 518.23 50.28 519.43 50.64 C 520.51 51.06 520.93 51.48 521.05 52.8 C 521.17 54 521.23 60.66 521.29 64.56 C 521.29 68.64 521.83 76.92 522.01 81.48 C 520.81 81.36 519.49 81.3 518.11 81.3 C 510.91 81.3 503.95 83.82 503.95 89.4 C 503.95 93.66 508.33 96.36 514.57 96.36 C 521.89 96.36 525.67 93 525.67 87.96 C 525.67 86.94 525.61 86.1 525.55 85.32 C 527.65 85.92 529.63 86.7 531.37 87.72 C 537.13 90.96 539.05 94.38 540.85 94.38 C 541.93 94.38 542.59 93.78 542.59 92.64 C 542.59 89.52 537.49 86.4 533.77 84.72 C 531.19 83.52 528.37 82.56 525.13 81.96 C 525.07 81.48 525.01 80.94 524.95 80.4 C 524.59 75.66 524.35 67.74 524.35 64.98 L 524.35 64.2 Z  M 474.37 52.38 C 476.89 54.18 478.51 56.1 479.77 57.66 C 480.97 59.16 481.57 60.48 482.53 60.48 C 483.43 60.48 484.09 59.94 484.09 58.92 C 484.09 57.78 483.49 56.7 481.99 55.38 C 480.49 53.94 478.21 52.56 475.15 51.3 L 474.37 52.38 Z  M 462.97 69.3 C 465.61 68.7 468.37 68.34 471.01 68.34 C 472.81 68.34 474.85 68.52 476.29 69.06 C 476.83 69.24 477.01 69.54 476.53 69.9 C 475.75 70.68 472.27 72.96 470.23 74.28 L 471.01 75.36 C 473.05 74.34 475.87 72.9 477.73 72.24 C 479.29 71.58 480.19 71.4 481.27 71.28 C 482.71 71.16 483.73 70.86 483.73 69.78 C 483.73 68.76 482.95 67.86 481.57 67.14 C 480.13 66.48 477.43 65.7 473.47 65.7 C 469.51 65.7 465.43 66.72 462.61 67.86 L 462.97 69.3 Z  M 448.51 49.74 C 449.77 49.98 451.09 50.34 452.29 50.76 C 453.37 51.3 453.67 51.84 453.55 53.16 C 453.37 55.02 452.83 57.84 452.05 60.96 C 449.77 61.5 447.07 61.92 444.25 61.92 C 441.31 61.92 439.51 60.78 436.93 58.5 L 435.91 59.28 C 437.89 63.84 440.77 65.16 444.25 65.16 C 446.47 65.16 448.99 64.86 451.15 64.44 C 450.43 66.96 449.65 69.48 448.87 71.7 C 445.93 80.1 442.57 86.1 439.51 90.66 C 438.61 92.28 438.07 92.82 438.07 94.14 C 438.07 95.52 438.79 96.6 439.81 96.6 C 441.01 96.6 441.61 96.06 442.45 94.68 C 445.03 90.48 448.87 80.82 451.69 72.72 C 452.77 69.84 453.79 66.6 454.63 63.66 C 458.95 62.58 463.63 60.9 465.01 60.3 C 467.23 59.34 467.89 58.74 467.89 57.6 C 467.89 56.52 466.33 55.92 465.31 55.92 C 464.83 55.92 464.17 56.28 463.27 56.76 C 461.41 57.72 458.89 58.86 455.71 59.94 C 456.19 58.26 456.55 56.76 456.85 55.68 C 457.57 53.4 458.41 51.9 458.41 50.88 C 458.35 49.5 454.57 48.06 452.41 47.94 C 450.97 47.88 449.89 48.06 448.63 48.36 L 448.51 49.74 Z  M 457.75 82.08 C 457.81 84.18 458.05 86.46 459.07 88.74 C 460.93 94.02 466.45 96.12 473.41 96.12 C 476.89 96.12 479.59 95.76 481.45 95.34 C 483.19 94.98 484.75 94.32 484.75 93.12 C 484.75 91.74 483.19 91.08 481.81 91.08 C 480.07 91.08 478.15 92.22 472.15 92.22 C 466.99 92.22 463.33 90.84 461.23 87.6 C 460.09 85.8 459.55 83.64 459.19 81.9 L 457.75 82.08 Z  M 479.65 48.66 C 482.35 50.52 483.73 51.96 485.05 53.46 C 486.37 54.96 486.97 56.34 487.93 56.34 C 488.77 56.34 489.37 55.86 489.37 54.84 C 489.37 53.58 488.77 52.44 487.21 51.12 C 485.71 49.86 483.49 48.78 480.31 47.58 L 479.65 48.66 Z " />
    <path
      d=" M 414.59 71.16 C 414.77 67.5 415.13 59.82 415.31 56.34 C 415.43 54.54 416.63 53.88 416.63 52.32 C 416.63 50.52 411.29 47.52 408.77 47.52 C 407.21 47.52 404.75 48.9 403.13 50.1 L 403.19 51.06 C 404.57 51.48 405.89 51.84 406.79 52.44 C 407.93 53.1 408.05 53.76 408.11 55.14 C 408.35 58.56 408.41 66.66 407.99 71.16 C 407.09 83.04 401.09 90.9 389.69 97.14 L 390.35 98.22 C 405.17 93.96 413.75 85.5 414.59 71.16 Z  M 386.45 54 C 387.35 54.54 387.65 55.02 387.77 56.22 C 388.13 58.68 388.13 65.04 388.13 67.98 C 388.13 72.12 387.29 73.86 387.29 75.36 C 387.29 78.9 389.21 81.9 391.19 81.9 C 393.23 81.9 394.43 80.58 394.43 77.4 C 394.43 73.32 394.37 62.76 394.55 60.18 C 394.67 57.72 395.99 56.82 395.99 55.26 C 395.99 53.1 390.47 50.1 387.83 50.1 C 386.27 50.1 384.53 50.76 383.03 51.48 L 383.03 52.44 C 384.35 52.92 385.61 53.46 386.45 54 Z  M 319.25 57.96 C 319.19 59.34 319.43 60.96 319.79 62.04 C 320.51 64.32 323.45 67.5 325.43 67.5 C 326.99 67.5 328.67 66.36 331.25 65.76 C 334.91 64.92 346.97 63.3 349.61 63.3 C 350.15 63.3 350.33 63.54 350.27 64.08 C 350.09 67.38 348.77 75.78 347.57 82.26 C 340.43 82.98 326.87 84.54 324.11 84.54 C 321.65 84.54 320.09 83.22 318.35 81.48 L 317.51 81.84 C 317.39 82.86 317.69 84.78 318.23 86.16 C 319.19 88.5 322.25 91.44 324.71 91.44 C 326.45 91.44 327.89 90.6 330.53 89.94 C 333.53 89.16 339.65 87.96 345.41 87.96 C 350.39 87.96 353.63 88.8 355.79 88.8 C 357.71 88.8 358.67 88.08 358.67 86.7 C 358.67 84.84 357.11 82.74 354.17 82.08 C 355.61 76.5 356.93 70.92 357.83 67.56 C 358.37 65.52 360.35 64.56 360.35 62.88 C 360.35 60.3 354.05 56.34 351.83 56.34 C 350.15 56.34 349.73 58.14 347.15 58.44 C 343.85 58.86 328.43 60.54 325.25 60.54 C 323.15 60.54 322.01 59.28 320.15 57.6 L 319.25 57.96 Z  M 352.79 50.04 C 355.61 52.44 357.11 54.54 358.19 56.22 C 359.15 57.6 359.99 58.5 360.95 58.5 C 362.21 58.5 363.11 57.54 363.11 56.28 C 363.11 55.14 362.69 54.12 361.37 52.92 C 359.51 51.18 356.69 50.1 353.33 49.2 L 352.79 50.04 Z  M 358.37 45.78 C 361.49 48.18 362.75 49.92 363.83 51.3 C 364.97 52.74 365.69 53.76 366.83 53.76 C 368.09 53.76 368.81 52.92 368.81 51.6 C 368.81 50.22 368.27 49.08 366.71 47.88 C 365.03 46.68 362.27 45.66 358.85 45 L 358.37 45.78 Z  M 223.25 47.7 C 225.05 48.6 226.73 49.8 226.73 50.88 C 226.73 51.66 226.19 52.92 225.17 54.54 C 220.73 61.44 208.25 74.16 195.53 81.48 L 196.19 82.62 C 206.75 79.14 215.99 72.42 220.19 68.94 C 220.43 69.6 220.55 70.38 220.55 71.28 C 220.61 73.92 220.55 80.7 219.89 86.58 C 219.65 88.56 219.23 89.94 219.23 91.08 C 219.23 94.08 220.67 97.14 223.79 97.14 C 225.95 97.14 227.09 95.52 227.09 92.94 C 227.09 89.88 226.67 81.24 226.97 73.2 C 226.97 71.46 227.51 70.38 227.51 69.3 C 227.51 68.16 226.01 67.02 223.97 65.64 C 227.57 62.28 230.57 59.1 232.67 56.94 C 234.29 55.26 235.79 55.32 235.79 53.52 C 235.79 51.36 232.19 48 228.89 47.04 C 227.09 46.44 225.17 46.56 223.55 46.68 L 223.25 47.7 Z  M 255.35 66.84 C 255.17 68.28 254.99 70.02 255.53 71.4 C 256.61 74.34 260.33 78.24 262.67 78.24 C 264.95 78.24 265.85 76.8 270.17 76.38 C 274.79 75.84 288.23 75 292.79 75 C 296.99 75 299.09 75.18 301.49 75.18 C 304.01 75.18 305.45 74.34 305.45 72.6 C 305.45 70.02 302.33 68.16 298.73 68.16 C 297.29 68.16 294.59 68.64 290.57 69 C 286.91 69.3 268.79 70.5 262.37 70.5 C 259.19 70.5 258.17 68.88 256.37 66.48 L 255.35 66.84 Z " />
    <path
      d=" M 90.83 72.48 C 90.83 71.52 90.89 70.5 90.95 69.42 C 94.43 67.8 97.61 66.96 101.33 66.84 C 99.65 70.74 95.75 76.14 91.91 80.22 C 91.31 78.24 90.83 75.78 90.83 72.48 Z  M 78.71 88.02 C 77.27 88.02 76.67 87.36 76.67 85.74 C 76.67 81.6 81.17 75.24 88.01 70.98 C 87.95 71.76 87.95 72.48 87.95 73.2 C 87.95 76.38 88.31 80.04 89.03 83.04 C 85.73 85.8 81.71 88.02 78.71 88.02 Z  M 98.87 61.56 C 101.09 62.76 102.05 63.54 101.87 65.04 C 97.91 65.1 94.13 65.94 91.19 67.08 C 91.49 64.56 91.97 61.86 92.45 59.46 C 98.93 58.44 106.01 56.34 108.53 55.26 C 109.61 54.78 109.91 54.3 109.91 53.52 C 109.91 52.5 108.77 51.84 106.73 51.84 C 105.65 51.84 101.45 54.66 93.17 56.28 C 93.41 55.26 93.59 54.36 93.83 53.64 C 94.37 51.54 95.45 51.36 95.45 50.1 C 95.45 48.96 92.39 46.92 88.97 46.92 C 88.25 46.92 86.99 47.22 85.97 47.46 L 85.91 48.72 C 87.17 48.84 88.37 49.02 89.45 49.38 C 90.29 49.74 90.53 49.98 90.53 51 C 90.53 52.02 90.23 54.18 89.81 56.82 C 88.01 57.06 86.15 57.18 84.29 57.18 C 81.29 57.18 79.37 56.7 76.19 54.12 L 75.23 55.08 C 77.81 59.04 79.97 60.18 83.87 60.18 C 85.61 60.18 87.53 60.06 89.33 59.88 C 88.91 62.64 88.49 65.64 88.19 68.46 C 81.29 72.06 73.43 79.2 73.43 87.06 C 73.43 90.24 74.93 91.74 77.63 91.74 C 81.23 91.74 85.61 89.76 89.93 86.04 C 90.65 87.84 91.61 89.04 92.69 89.04 C 93.71 89.04 94.49 88.56 94.49 87.42 C 94.49 86.16 93.77 84.84 92.99 83.1 C 97.97 78 102.35 71.7 104.51 67.02 C 111.29 67.92 115.31 72.9 115.31 78.66 C 115.31 88.02 106.25 93.42 91.61 95.34 L 91.85 96.66 C 107.51 96.3 119.45 91.08 119.45 79.74 C 119.45 73.02 114.35 66.3 105.17 65.22 C 105.35 64.38 105.23 63.78 104.69 63.12 C 103.49 61.8 101.63 61.08 99.47 60.54 L 98.87 61.56 Z  M 126.09 84.78 C 131.43 88.56 133.89 92.22 135.81 96.18 C 136.65 97.98 137.43 98.7 138.69 98.7 C 140.13 98.7 141.15 97.74 141.15 96 C 141.15 94.68 140.79 93.54 139.71 91.98 C 137.73 89.1 133.95 86.04 126.75 83.76 L 126.09 84.78 Z  M 29.63 48.66 C 33.47 49.74 35.39 51.54 36.11 52.92 C 36.53 53.88 36.29 54.3 35.45 54.36 C 33.71 54.54 28.73 54.78 23.75 55.2 C 21.89 55.32 19.43 54.96 18.77 58.02 C 18.17 60.36 19.43 61.32 20.51 62.64 C 21.41 63.72 22.43 64.98 23.69 67.02 L 18.65 69.6 C 16.49 70.68 14.75 71.46 13.49 71.46 C 12.11 71.46 10.85 69.9 9.95 68.58 L 8.69 69.12 C 8.69 70.5 8.99 71.52 9.53 72.48 C 10.49 74.1 13.25 75.9 14.81 75.9 C 16.49 75.9 17.27 74.64 20.21 72.84 C 21.89 71.82 23.63 70.74 25.37 69.72 C 28.97 75.54 31.43 82.08 32.93 86.64 C 34.13 90.54 34.73 93.9 35.15 95.16 C 35.63 96.78 36.29 97.38 37.25 97.38 C 38.57 97.38 39.35 96.18 39.35 94.5 C 39.35 92.58 38.33 89.22 37.31 86.58 C 35.03 81.24 32.09 74.46 28.13 68.04 C 35.57 63.72 43.07 60.12 49.25 60.12 C 53.99 60.12 57.59 63.06 57.59 67.38 C 57.59 71.88 53.99 74.58 48.83 74.58 C 44.33 74.58 41.09 73.38 37.07 70.44 L 35.99 71.4 C 39.95 76.02 44.81 78 49.01 78 C 55.73 78 61.49 74.64 61.49 68.16 C 61.49 62.28 56.75 58.08 49.49 58.08 C 42.71 58.08 34.91 61.38 26.51 65.58 C 24.77 63 22.37 60 22.37 58.74 C 22.37 57.54 23.09 57.3 24.89 57.06 C 28.31 56.64 33.77 56.7 36.11 56.94 C 37.73 57.06 38.75 57.6 39.77 57.6 C 40.79 57.6 41.45 57 41.45 55.62 C 41.45 54.18 40.67 52.74 39.47 51.36 C 37.91 49.62 34.97 47.88 30.17 47.4 L 29.63 48.66 Z " />
  </g>
  <!-- <g style="isolation:isolate">
    <a href="mailto:morozov.ig.s@gmail.com" id="link-1" class="link">
      <g>
        <path
          d=" M 359.271 159.29 L 359.271 161.033 L 354.445 161.033 L 354.445 150.325 L 359.271 150.325 L 359.271 152.046 L 356.437 152.046 L 356.437 154.595 L 359.066 154.595 L 359.066 156.323 L 356.437 156.323 L 356.437 159.29 L 359.271 159.29 L 359.271 159.29 Z  M 366.83 161.033 L 364.655 161.033 L 362.619 151.914 L 362.538 151.914 L 362.538 151.914 Q 362.677 152.969 362.677 153.848 L 362.677 153.848 L 362.677 161.033 L 360.832 161.033 L 360.832 150.325 L 363.893 150.325 L 365.724 158.74 L 365.783 158.74 L 367.599 150.325 L 370.705 150.325 L 370.705 161.033 L 368.815 161.033 L 368.815 153.774 L 368.815 153.774 Q 368.815 152.874 368.917 151.929 L 368.917 151.929 L 368.859 151.929 L 366.83 161.033 L 366.83 161.033 Z  M 379.662 161.033 L 377.663 161.033 L 377.047 158.33 L 374.257 158.33 L 373.642 161.033 L 371.649 161.033 L 374.301 150.281 L 377.003 150.281 L 379.662 161.033 L 379.662 161.033 Z  M 374.652 156.565 L 376.674 156.565 L 376.103 154.075 L 376.103 154.075 Q 376.051 153.848 375.872 152.936 L 375.872 152.936 L 375.872 152.936 Q 375.692 152.024 375.656 151.716 L 375.656 151.716 L 375.656 151.716 Q 375.561 152.346 375.414 153.104 L 375.414 153.104 L 375.414 153.104 Q 375.268 153.862 374.652 156.565 L 374.652 156.565 L 374.652 156.565 Z  M 382.841 161.033 L 380.966 161.033 L 380.966 150.325 L 382.841 150.325 L 382.841 161.033 L 382.841 161.033 Z  M 389.857 161.033 L 385.104 161.033 L 385.104 150.325 L 387.096 150.325 L 387.096 159.29 L 389.857 159.29 L 389.857 161.033 L 389.857 161.033 Z " />
        <line class="link-underline" x1="351.5" y1="165.427" x2="394.5" y2="165.427" vector-effect="non-scaling-stroke"
          stroke-linejoin="miter" stroke-linecap="square" stroke-miterlimit="3" />
      </g>
    </a>
    <a href="https://twitter.com/morigser" id="link-2" class="link">
      <g>
        <path
          d=" M 291.733 152.075 L 291.733 161.033 L 289.749 161.033 L 289.749 152.075 L 287.698 152.075 L 287.698 150.325 L 293.784 150.325 L 293.784 152.075 L 291.733 152.075 L 291.733 152.075 Z  M 305.73 150.325 L 303.804 161.033 L 301.313 161.033 L 300.266 155.422 L 300.266 155.422 Q 300.024 154.272 299.922 152.705 L 299.922 152.705 L 299.863 153.247 L 299.563 155.452 L 298.545 161.033 L 296.055 161.033 L 294.114 150.325 L 296.069 150.325 L 297.029 156.367 L 297.029 156.367 Q 297.168 157.275 297.402 159.216 L 297.402 159.216 L 297.402 159.216 Q 297.585 157.253 297.747 156.411 L 297.747 156.411 L 298.889 150.325 L 300.955 150.325 L 302.097 156.411 L 302.097 156.411 Q 302.324 157.766 302.456 159.231 L 302.456 159.231 L 302.456 159.231 Q 302.712 157.063 302.83 156.367 L 302.83 156.367 L 303.76 150.325 L 305.73 150.325 L 305.73 150.325 Z  M 309.041 161.033 L 307.166 161.033 L 307.166 150.325 L 309.041 150.325 L 309.041 161.033 L 309.041 161.033 Z  M 314.592 152.075 L 314.592 161.033 L 312.607 161.033 L 312.607 152.075 L 310.557 152.075 L 310.557 150.325 L 316.643 150.325 L 316.643 152.075 L 314.592 152.075 L 314.592 152.075 Z  M 321.074 152.075 L 321.074 161.033 L 319.089 161.033 L 319.089 152.075 L 317.039 152.075 L 317.039 150.325 L 323.125 150.325 L 323.125 152.075 L 321.074 152.075 L 321.074 152.075 Z  M 329.094 159.29 L 329.094 161.033 L 324.268 161.033 L 324.268 150.325 L 329.094 150.325 L 329.094 152.046 L 326.26 152.046 L 326.26 154.595 L 328.889 154.595 L 328.889 156.323 L 326.26 156.323 L 326.26 159.29 L 329.094 159.29 L 329.094 159.29 Z  M 333.357 156.865 L 332.646 156.865 L 332.646 161.033 L 330.654 161.033 L 330.654 150.325 L 333.262 150.325 L 333.262 150.325 Q 334.917 150.325 335.704 151.108 L 335.704 151.108 L 335.704 151.108 Q 336.492 151.892 336.492 153.503 L 336.492 153.503 L 336.492 153.503 Q 336.492 155.532 335.122 156.338 L 335.122 156.338 L 337.18 161.033 L 335.049 161.033 L 333.357 156.865 L 333.357 156.865 Z  M 332.646 152.046 L 332.646 155.151 L 333.159 155.151 L 333.159 155.151 Q 333.862 155.151 334.17 154.752 L 334.17 154.752 L 334.17 154.752 Q 334.478 154.353 334.478 153.562 L 334.478 153.562 L 334.478 153.562 Q 334.478 152.742 334.152 152.394 L 334.152 152.394 L 334.152 152.394 Q 333.826 152.046 333.145 152.046 L 333.145 152.046 L 332.646 152.046 L 332.646 152.046 Z " />
        <line class="link-underline" x1="285.5" y1="165.427" x2="341.5" y2="165.427" vector-effect="non-scaling-stroke"
          stroke-linejoin="miter" stroke-linecap="square" stroke-miterlimit="3" />
      </g>
    </a>
    <a href="https://www.linkedin.com/in/morozov-igor/" id="link-3" class="link">
      <g>
        <path
          d=" M 220.198 161.033 L 215.445 161.033 L 215.445 150.325 L 217.437 150.325 L 217.437 159.29 L 220.198 159.29 L 220.198 161.033 L 220.198 161.033 Z  M 223.707 161.033 L 221.832 161.033 L 221.832 150.325 L 223.707 150.325 L 223.707 161.033 L 223.707 161.033 Z  M 233.47 150.325 L 233.47 161.033 L 231.038 161.033 L 227.728 153.276 L 227.632 153.276 L 227.632 153.276 Q 227.815 154.163 227.815 155.181 L 227.815 155.181 L 227.815 161.033 L 225.97 161.033 L 225.97 150.325 L 228.416 150.325 L 231.697 158 L 231.778 158 L 231.778 158 Q 231.639 157.231 231.639 156.169 L 231.639 156.169 L 231.639 150.325 L 233.47 150.325 L 233.47 150.325 Z  M 239.527 154.961 L 242.032 161.033 L 239.908 161.033 L 238.15 156.455 L 237.352 157.253 L 237.352 161.033 L 235.359 161.033 L 235.359 150.325 L 237.352 150.325 L 237.352 155.635 L 238.047 154.031 L 239.871 150.325 L 242.002 150.325 L 239.527 154.961 L 239.527 154.961 Z  M 247.803 159.29 L 247.803 161.033 L 242.977 161.033 L 242.977 150.325 L 247.803 150.325 L 247.803 152.046 L 244.969 152.046 L 244.969 154.595 L 247.598 154.595 L 247.598 156.323 L 244.969 156.323 L 244.969 159.29 L 247.803 159.29 L 247.803 159.29 Z  M 256.175 155.576 L 256.175 155.576 L 256.175 155.576 Q 256.175 158.228 255.094 159.63 L 255.094 159.63 L 255.094 159.63 Q 254.014 161.033 251.985 161.033 L 251.985 161.033 L 249.363 161.033 L 249.363 150.325 L 252.227 150.325 L 252.227 150.325 Q 254.095 150.325 255.135 151.705 L 255.135 151.705 L 255.135 151.705 Q 256.175 153.086 256.175 155.576 Z  M 254.131 155.635 L 254.131 155.635 L 254.131 155.635 Q 254.131 152.046 252.154 152.046 L 252.154 152.046 L 251.355 152.046 L 251.355 159.29 L 252 159.29 L 252 159.29 Q 253.091 159.29 253.611 158.378 L 253.611 158.378 L 253.611 158.378 Q 254.131 157.466 254.131 155.635 Z  M 259.969 161.033 L 258.094 161.033 L 258.094 150.325 L 259.969 150.325 L 259.969 161.033 L 259.969 161.033 Z  M 269.732 150.325 L 269.732 161.033 L 267.3 161.033 L 263.99 153.276 L 263.895 153.276 L 263.895 153.276 Q 264.078 154.163 264.078 155.181 L 264.078 155.181 L 264.078 161.033 L 262.232 161.033 L 262.232 150.325 L 264.678 150.325 L 267.959 158 L 268.04 158 L 268.04 158 Q 267.901 157.231 267.901 156.169 L 267.901 156.169 L 267.901 150.325 L 269.732 150.325 L 269.732 150.325 Z " />
        <line class="link-underline" x1="212.5" y1="165.427" x2="275.5" y2="165.427" vector-effect="non-scaling-stroke"
          stroke-linejoin="miter" stroke-linecap="square" stroke-miterlimit="3" />
      </g>
    </a>
    <a href="https://morigs.hashnode.dev/" id="link-4" class="link">
      <g>
        <path
          d=" M 168.445 161.033 L 168.445 150.325 L 171.177 150.325 L 171.177 150.325 Q 172.847 150.325 173.608 150.973 L 173.608 150.973 L 173.608 150.973 Q 174.37 151.621 174.37 153.035 L 174.37 153.035 L 174.37 153.035 Q 174.37 153.965 173.967 154.591 L 173.967 154.591 L 173.967 154.591 Q 173.564 155.217 172.869 155.349 L 172.869 155.349 L 172.869 155.422 L 172.869 155.422 Q 173.777 155.649 174.18 156.272 L 174.18 156.272 L 174.18 156.272 Q 174.583 156.895 174.583 157.927 L 174.583 157.927 L 174.583 157.927 Q 174.583 159.385 173.802 160.209 L 173.802 160.209 L 173.802 160.209 Q 173.022 161.033 171.667 161.033 L 171.667 161.033 L 168.445 161.033 L 168.445 161.033 Z  M 170.32 152.046 L 170.32 154.631 L 171.235 154.631 L 171.235 154.631 Q 171.865 154.631 172.122 154.294 L 172.122 154.294 L 172.122 154.294 Q 172.378 153.958 172.378 153.291 L 172.378 153.291 L 172.378 153.291 Q 172.378 152.625 172.085 152.335 L 172.085 152.335 L 172.085 152.335 Q 171.792 152.046 171.162 152.046 L 171.162 152.046 L 170.32 152.046 L 170.32 152.046 Z  M 171.294 156.294 L 170.32 156.294 L 170.32 159.29 L 171.323 159.29 L 171.323 159.29 Q 171.946 159.29 172.25 158.909 L 172.25 158.909 L 172.25 158.909 Q 172.554 158.528 172.554 157.729 L 172.554 157.729 L 172.554 157.729 Q 172.554 156.294 171.294 156.294 L 171.294 156.294 L 171.294 156.294 Z  M 180.801 161.033 L 176.047 161.033 L 176.047 150.325 L 178.04 150.325 L 178.04 159.29 L 180.801 159.29 L 180.801 161.033 L 180.801 161.033 Z  M 189.443 155.664 L 189.443 155.664 L 189.443 155.664 Q 189.443 158.323 188.447 159.751 L 188.447 159.751 L 188.447 159.751 Q 187.451 161.179 185.598 161.179 L 185.598 161.179 L 185.598 161.179 Q 183.738 161.179 182.742 159.755 L 182.742 159.755 L 182.742 159.755 Q 181.746 158.33 181.746 155.649 L 181.746 155.649 L 181.746 155.649 Q 181.746 152.991 182.742 151.573 L 182.742 151.573 L 182.742 151.573 Q 183.738 150.156 185.613 150.156 L 185.613 150.156 L 185.613 150.156 Q 187.466 150.156 188.455 151.581 L 188.455 151.581 L 188.455 151.581 Q 189.443 153.005 189.443 155.664 Z  M 183.782 155.664 L 183.782 155.664 L 183.782 155.664 Q 183.782 157.495 184.243 158.455 L 184.243 158.455 L 184.243 158.455 Q 184.705 159.414 185.598 159.414 L 185.598 159.414 L 185.598 159.414 Q 187.4 159.414 187.4 155.664 L 187.4 155.664 L 187.4 155.664 Q 187.4 151.914 185.613 151.914 L 185.613 151.914 L 185.613 151.914 Q 184.705 151.914 184.243 152.87 L 184.243 152.87 L 184.243 152.87 Q 183.782 153.826 183.782 155.664 Z  M 194.241 156.851 L 194.241 155.093 L 197.515 155.093 L 197.515 160.586 L 197.515 160.586 Q 196.123 161.179 194.556 161.179 L 194.556 161.179 L 194.556 161.179 Q 192.688 161.179 191.681 159.758 L 191.681 159.758 L 191.681 159.758 Q 190.674 158.337 190.674 155.664 L 190.674 155.664 L 190.674 155.664 Q 190.674 153.086 191.827 151.628 L 191.827 151.628 L 191.827 151.628 Q 192.981 150.171 195.054 150.171 L 195.054 150.171 L 195.054 150.171 Q 196.335 150.171 197.5 150.83 L 197.5 150.83 L 196.87 152.456 L 196.87 152.456 Q 195.962 151.929 195.171 151.929 L 195.171 151.929 L 195.171 151.929 Q 194.036 151.929 193.373 152.943 L 193.373 152.943 L 193.373 152.943 Q 192.71 153.958 192.71 155.708 L 192.71 155.708 L 192.71 155.708 Q 192.71 157.51 193.19 158.469 L 193.19 158.469 L 193.19 158.469 Q 193.669 159.429 194.585 159.429 L 194.585 159.429 L 194.585 159.429 Q 195.068 159.429 195.566 159.304 L 195.566 159.304 L 195.566 156.851 L 194.241 156.851 L 194.241 156.851 Z " />
        <line class="link-underline" x1="165.5" y1="165.427" x2="202.5" y2="165.427" vector-effect="non-scaling-stroke"
          stroke-linejoin="miter" stroke-linecap="square" stroke-miterlimit="3" />
      </g>
    </a>
  </g> -->
</svg>
